<svg id="Capa_1" data-name="Capa 1" xmlns="http://www.w3.org/2000/svg" viewBox="0 0 325.5 49.8"><defs><style>.cls-1{fill:#004e87;}</style></defs><title>Conecta-carga</title><path class="cls-1" d="M213.4,37.9h-6.6a7.3,7.3,0,0,1-5.4-2.3,7.4,7.4,0,0,1-2.2-5.4,7.5,7.5,0,0,1,2.2-5.4,7.2,7.2,0,0,1,5.4-2.3h6.5a17.1,17.1,0,0,1,3.6-4.8,17.7,17.7,0,0,1,3.6-2.6H206.8a14.8,14.8,0,0,0-10.8,4.4,14.5,14.5,0,0,0-4.5,10.7,14.4,14.4,0,0,0,4.5,10.7,14.8,14.8,0,0,0,10.8,4.4h13.6a17.2,17.2,0,0,1-7.1-7.4Z" transform="translate(-6.5 -11)"/><path class="cls-1" d="M267.8,16.1a14.9,14.9,0,0,0-5.8-1,13.6,13.6,0,0,0-5.7,1.2,14.7,14.7,0,0,0-4.6,3.3,15.9,15.9,0,0,0-3.1,4.8,14.9,14.9,0,0,0-1.1,5.8V45.4H255V30.2a8.1,8.1,0,0,1,1.9-5.3,6.5,6.5,0,0,1,2.2-1.7,6.5,6.5,0,0,1,2.8-.6h.2a17.7,17.7,0,0,1,3.5-4.8Z" transform="translate(-6.5 -11)"/><path class="cls-1" d="M244.8,29.9a14,14,0,0,0-1.2-5.9,14.9,14.9,0,0,0-3.4-4.7,15.8,15.8,0,0,0-4.9-3.1,15.9,15.9,0,0,0-11.9,0,15.8,15.8,0,0,0-4.9,3.1,14.9,14.9,0,0,0-3.4,4.7,14,14,0,0,0-1.2,5.9,15.2,15.2,0,0,0,9.5,14.3,15.5,15.5,0,0,0,5.9,1.1h5.2V37.6h-5.2a8.1,8.1,0,0,1-3-.5,7.2,7.2,0,0,1-2.4-1.5,7.7,7.7,0,0,1-2.3-5.6,6.4,6.4,0,0,1,.6-2.9,7.7,7.7,0,0,1,1.7-2.3,7.1,7.1,0,0,1,2.4-1.5,8.8,8.8,0,0,1,5.9,0,7.4,7.4,0,0,1,4.1,3.7,6.5,6.5,0,0,1,.6,2.9v7.2h0v8.2h7.7Z" transform="translate(-6.5 -11)"/><path class="cls-1" d="M292.4,24.4a15.6,15.6,0,0,0-3.4-4.9,15.1,15.1,0,0,0-4.9-3.2,15.6,15.6,0,0,0-6-1.1,15.4,15.4,0,0,0-5.9,1.1,15,15,0,0,0-4.9,3.2,15.6,15.6,0,0,0-3.4,4.9,15.3,15.3,0,0,0-1.2,6.2,13.9,13.9,0,0,0,1.2,5.8,14.9,14.9,0,0,0,3.4,4.7,15.9,15.9,0,0,0,4.9,3.1,15.5,15.5,0,0,0,5.9,1.1h5.1V37.7h-5.1a7.8,7.8,0,0,1-2.9-.5,8.2,8.2,0,0,1-2.4-1.5,6.7,6.7,0,0,1-2.3-5.1,8.2,8.2,0,0,1,.6-3.2,7,7,0,0,1,1.7-2.4,7.6,7.6,0,0,1,2.4-1.5,7.8,7.8,0,0,1,2.9-.5,8.3,8.3,0,0,1,3,.5,7.5,7.5,0,0,1,2.5,1.5,7.1,7.1,0,0,1,1.7,2.4,8.2,8.2,0,0,1,.6,3.2V45.4h0a7.4,7.4,0,0,1-.6,2.9,7.9,7.9,0,0,1-1.7,2.4,7.7,7.7,0,0,1-2.5,1.7,7.5,7.5,0,0,1-3,.6,6.8,6.8,0,0,1-2.9-.7,9.4,9.4,0,0,1-2.4-1.6L267.5,56a17.7,17.7,0,0,0,4.9,3.5,13.3,13.3,0,0,0,5.7,1.2,14.6,14.6,0,0,0,6-1.2,16.1,16.1,0,0,0,8.3-8.3,14.5,14.5,0,0,0,1.2-5.9V30.5A15.3,15.3,0,0,0,292.4,24.4Z" transform="translate(-6.5 -11)"/><path class="cls-1" d="M324.6,24.1a15,15,0,0,0-3.4-4.7,15.8,15.8,0,0,0-4.9-3.1,15.9,15.9,0,0,0-11.9,0,15.8,15.8,0,0,0-4.9,3.1,14.9,14.9,0,0,0-3.4,4.7,14,14,0,0,0-1.2,5.9,15.2,15.2,0,0,0,9.5,14.3,15.5,15.5,0,0,0,5.9,1.1h5.2V37.6h-5.2a8.1,8.1,0,0,1-3-.5,7.1,7.1,0,0,1-2.4-1.5,7.6,7.6,0,0,1-1.7-2.4,7.7,7.7,0,0,1-.6-3.2,6.5,6.5,0,0,1,.6-2.9,7.7,7.7,0,0,1,1.7-2.3,7.1,7.1,0,0,1,2.4-1.5,8.8,8.8,0,0,1,5.9,0,7.4,7.4,0,0,1,2.4,1.5,7.5,7.5,0,0,1,1.7,2.3,6.5,6.5,0,0,1,.6,2.9V45.4h7.8V29.9A14,14,0,0,0,324.6,24.1Z" transform="translate(-6.5 -11)"/><path class="cls-1" d="M329.6,17H329l-1.2-1.8h-.2V17H327V12.7h.6a2.2,2.2,0,0,1,1.1.2,1.2,1.2,0,0,1,.6,1,1.2,1.2,0,0,1-1,1.2Zm-2.1-2.2h.2c.5,0,1.1-.1,1.1-.8s-.6-.8-1.2-.8h-.1Z" transform="translate(-6.5 -11)"/><path class="cls-1" d="M328.1,11a3.9,3.9,0,1,0,3.9,3.9A3.9,3.9,0,0,0,328.1,11Zm0,7.2a3.3,3.3,0,1,1,3.3-3.3A3.3,3.3,0,0,1,328.1,18.2Z" transform="translate(-6.5 -11)"/><path class="cls-1" d="M170.3,18.7h-6.4a11.1,11.1,0,0,0-5,1.1,10.9,10.9,0,0,0-6.2,8s-.1,2.1,0,4.4a2.2,2.2,0,0,0,.2.5,11,11,0,0,0,10.8,8.2h7V18.7Zm-1.9,19.9h-4.6a8.8,8.8,0,0,1-8.6-6.5,1.8,1.8,0,0,1-.1-.4c-.1-1.8,0-3.5,0-3.5a8.7,8.7,0,0,1,4.9-6.3,8.9,8.9,0,0,1,4-.8h4.5Z" transform="translate(-6.5 -11)"/><path class="cls-1" d="M173.8,29.7q0,5.4,0,10.8a1.2,1.2,0,0,1-2.4.2c0-.2,0-.3,0-.5q0-10.5,0-21.1a2.1,2.1,0,0,1,.2-.9,1.2,1.2,0,0,1,1.4-.5,1.2,1.2,0,0,1,.8,1.1c0,2.4,0,4.7,0,7.1s0,2.5,0,3.8Z" transform="translate(-6.5 -11)"/><path class="cls-1" d="M174.3,22.9h9.2a1.1,1.1,0,0,1,1.1,1.7,1,1,0,0,1-.9.6h-9.4Z" transform="translate(-6.5 -11)"/><path class="cls-1" d="M174.3,34.1h9.2a1.1,1.1,0,0,1,1.2,1.1,1.1,1.1,0,0,1-1.2,1.1h-9.3Z" transform="translate(-6.5 -11)"/><path class="cls-1" d="M123.6,42.9c2.3-2,4.3-4.2,6.6-6.1s2.7-2,4.1-3l2-1.2,1-.5.6-.3h.4l2.6-.7h2.8a31,31,0,0,1,9.1,1.3,1.4,1.4,0,0,0,.7-2.6c-4.9-1.3-10.3-2.1-15.2-.5-3.3,1.1-6,3.1-8.8,5.1s-4.7,4.4-7,7c-.5.5-1.1,1.6-.6,2.1Z" transform="translate(-6.5 -11)"/><path class="cls-1" d="M28.6,41.9l-1.7,1.2-2.4,1.5-2.2,1.2-1.6.8-2,.6-2.2.2h-.8l-.9-.2-1-.3H13l-.3-.3h-.7A2.2,2.2,0,0,1,11,46L9.7,44.8,8.5,43.5a5.2,5.2,0,0,1-.6-1.1l-.6-2-.5-1.6a2.9,2.9,0,0,1-.1-.8l.3-1L6.6,36a2,2,0,0,1-.1-.5q0-.2.1-1.1L7,31.6l.3-.8.3-1v-.5a1.4,1.4,0,0,1,.1-.4l.2-.5L9,26,10,23.8a11.4,11.4,0,0,1,1.2-1.7l1.7-1.8.5-.6.7-.8,1-.7,1.4-1.2.6-.3.8-.4.3-.2.4-.3,1.9-.7,2.1-.5,1.8.2,1.2.5h.7a2,2,0,0,1,1.4,1.4,10.6,10.6,0,0,1,.4,3.5q0,1.1,0,1.7a6.7,6.7,0,0,1-.1.9l-.3,1.8-.5,2.4a5.4,5.4,0,0,1-.3,1.2l-.8,2.1a21,21,0,0,1-.8,2.1q-.3.7-.6.8l-2,.5H22a.3.3,0,0,1-.2-.3,2.5,2.5,0,0,1,.1-.5V30.5a8.3,8.3,0,0,1,.2-1.3l.6-2.4q.4-1.6.7-2.6a4.6,4.6,0,0,1,.5-1.2,5,5,0,0,0,1-1.2,2.2,2.2,0,0,0,.3-1,2.1,2.1,0,0,0-.3-1.1,1.9,1.9,0,0,0-.9-.7l-1.2-.3-1.2-.3-.9.3-.7.2a6.2,6.2,0,0,0-3,1.4,13.4,13.4,0,0,0-2.7,3.3,21.1,21.1,0,0,0-1.7,3.6,17.3,17.3,0,0,0-.9,3.7l-.2,1.4-.4,1.9.4,1.3L11,37.5l.2.5.6,1.1.5.9a6.2,6.2,0,0,1,.3,1.2l.2.3.3.3.7.5A7.3,7.3,0,0,0,15.9,44a5.4,5.4,0,0,0,2.4.5h.9l2.1-.4.6-.3.9-.3.9-.7.9-.2.3-.4.5-.5,1.3-.7,1.1-1.1Z" transform="translate(-6.5 -11)"/><path class="cls-1" d="M27.7,39.8l.3-.4.4-.6,1.8-1.2,1-1L32.9,35l.4-.6.6-.7.6-.6.6-.5.7-.7.6-.7.8-.5.9-.2h.8a.4.4,0,0,1,.3.4l-.5,1.1v.2l1.6-.6.7-.2a3.1,3.1,0,0,1,2.5,1,4.8,4.8,0,0,1,.8,3.1,5.5,5.5,0,0,1-.1.9,8.1,8.1,0,0,1-.3,1.2,6.5,6.5,0,0,1-.5,1.2l-.5.7.2.4H44l.5-.3.5,1.1.5,1.1-.8.7-.8.7-1,.6-.9.2a1.5,1.5,0,0,1-.9-.3,1.8,1.8,0,0,1-.6-.7,7.5,7.5,0,0,1-1.4,1.4,8,8,0,0,1-1.8,1.1l-1.1.4-.9.2h-1a3.2,3.2,0,0,1-2.4-1.1,3.5,3.5,0,0,1-1.1-2.5,5.8,5.8,0,0,1,.3-1.5,7.2,7.2,0,0,0,.3-1.1.4.4,0,0,0-.1-.3h-.3l-.6.3-1.3,1-.2.3-.3.4-.4-1.1Zm11.2-4.2-.3.2-.4.5-.7,1.2-.5.4-.7.2q-.2,0-.5.5a6.1,6.1,0,0,0-.5,1.2l-.4,1.2a4,4,0,0,0-.1.9,1.3,1.3,0,0,0,.3,1,1.4,1.4,0,0,0,1,.3,3.5,3.5,0,0,0,2-.6,6.2,6.2,0,0,0,1.7-1.8l.7-.8.3-.5.2-.8.4-1.3-.4-1.1a1,1,0,0,0-.4-.5l-.5-.2Z" transform="translate(-6.5 -11)"/><path class="cls-1" d="M44.4,39.8l.2-.4L45,39l.6-.5.8-.8,1-1.1L49,34.8l.9-1,1.3-1.5a4.5,4.5,0,0,1,1.4-1.1,3.5,3.5,0,0,1,1.6-.4,1.4,1.4,0,0,1,1.2.5,2.5,2.5,0,0,1,.4,1.5,10.1,10.1,0,0,1-.4,2q-.4,1.5-1.2,4l-.4.9-.2.5v.3l.2.3.2-.2.2-.3.6-.7.9-.8.5-.8.8-.7.2-.3.4-.4.7-.6,1-.7,1.1-.5.9-.2a2.4,2.4,0,0,1,1.3.3,2.8,2.8,0,0,1,1,1.1l.9,2.7a3.2,3.2,0,0,0,.6,1.1.9.9,0,0,0,.7.3h.5l.5-.3.9,2.1-.8.7-.8.7L65,44l-.9.2-1-.2a2.2,2.2,0,0,1-.8-.7l-.5-.7-.6-1.2-.7-.8-.9-1.2h-.2l-.9.4-.9.7L56,41.6a1.4,1.4,0,0,0-.6.5l-1.1,1.4-2,2.1-.6.6-.6.6-.7.4h-.8q-.9,0-1-.6l-.2-1.3.8-2.4,1-3.4v-.3l.2-.5.2-.5a1.9,1.9,0,0,0,0-.4.3.3,0,0,0-.1-.3h-.4l-.6.3-.9.9-1,1.1-.5.5-.5.5-.7.7v.3l-.3.4-.3-.9Z" transform="translate(-6.5 -11)"/><path class="cls-1" d="M66.6,39.8l.7-1,1.1-1v-.9a9.2,9.2,0,0,0,.1-.9l.2-.8.3-1,.6-1.3.9-1.7,1-1.2,1.1-1.3.6-.4L74,28l.6-.2h1.7l.6.4.3.6.3.9.2,1h-.1l-.2.8-.2.7A8.2,8.2,0,0,1,75.7,35a34,34,0,0,1-3.1,3.3l-.3.4a1.2,1.2,0,0,0-.1.5,2,2,0,0,0,.2.9,1.2,1.2,0,0,0,.5.6l.6.3,1,.3,1.6-.3,1.3-.6.4-.2.5-.3.5,1.2.4.9a14,14,0,0,1-2.4,2,3.9,3.9,0,0,1-2,.7l-.8.3H72.9l-1.5-.3a2.8,2.8,0,0,1-1.1-.7l-.5-.7-.5-1.1-.4-.8-.4-.2-.4.2-.5.5-.3-.9ZM74,32.3q-.5,0-1.4,1.3a4.4,4.4,0,0,0-.9,2v.2h.2a.5.5,0,0,0,.4-.3l.3-.5.5-.5.5-.5.4-.6a1.6,1.6,0,0,0,.1-.6.6.6,0,0,0-.1-.3Z" transform="translate(-6.5 -11)"/><path class="cls-1" d="M78.3,39.8l.2-.2a1.2,1.2,0,0,1,.3-.6l.9-.8.7-.5.7-.5L84,34.8l1.6-1.2,1.5-.8a5.2,5.2,0,0,1,1.8-1.3,5.3,5.3,0,0,1,2.2-.6l.5.2a.8.8,0,0,1,.2.5v1.3a2,2,0,0,1-.4,1.2,3.7,3.7,0,0,1-1.1,1l-1,.5-1,.5-1,.9-2.2,1.7-1,.9-.6.6a4.1,4.1,0,0,0-.4,1,5.3,5.3,0,0,0-.1,1.2,2.3,2.3,0,0,0,.2.9,1.4,1.4,0,0,0,.5.6l.6.3,1,.3.9-.3,1.3-.3,1.6-1,1.6-1,.3-.2.4-.2.6-.7,1-.9.9,2.1-1.7,1.4a7.7,7.7,0,0,1-2,1.2l-.6.6a7.7,7.7,0,0,1-2.7,1.8,9.8,9.8,0,0,1-3.5.6h-.8l-.6-.2-1.2-.8-.9-.7-.5-.6a2.1,2.1,0,0,1-.3-.8,6.7,6.7,0,0,1-.1-1.1,2.6,2.6,0,0,1,.1-.6,2.6,2.6,0,0,0,.1-.6l-.4-1Z" transform="translate(-6.5 -11)"/><path class="cls-1" d="M92.9,39.8v-.2l.4-.5.5-.6a26.2,26.2,0,0,0,3.2-3.7,44.9,44.9,0,0,0,3.1-4.9l.4-.7.5-1V28H95.8l-.4-.2-.4-.2-.4-.2a.5.5,0,0,1-.2-.4,6.4,6.4,0,0,1,.3-2.3,1,1,0,0,1,1-.8h1.2l1,.2h3.6l.8.2q.8-.1,1.7-2.3t2-2.2a1.1,1.1,0,0,1,.9.3,1.5,1.5,0,0,1,.3,1,4.4,4.4,0,0,1-.3,1.4,6.2,6.2,0,0,0-.4,1.3v.2l.2.2.2.3a2.2,2.2,0,0,1,.1.5,13.8,13.8,0,0,1-.1,2.1q-.1.8-.4.8l-1.6.3V29l-.2.8q-.4,1.2-.9,2.9l-1.1,4.2-.6,3.2a12.4,12.4,0,0,0-.2,1.6,1.1,1.1,0,0,0,.1.6l.3.2,1-.7,2.4-2,.9,2.1-.6.6-1,.7-.6.6-.8.7-.8.9-.8.9a3.9,3.9,0,0,1-1.1.9l-1,.3a1.9,1.9,0,0,1-1.5-.6,2.8,2.8,0,0,1-.5-1.8q0-1.3.1-2.3a7.1,7.1,0,0,1,.3-1.6v-.3a3.8,3.8,0,0,1,.1-.6l.2-.9.3-1.8.5-1.2-.2-.2h-.2l-.9,1.2L97,38.7,94.5,41l-.3.3-.4.6-.3-.7-.4-1V40Z" transform="translate(-6.5 -11)"/><path class="cls-1" d="M106.5,38.8l2.1-1.4.3-.3.4-.6.4-.5.6-.4.5-.6.9-.8.6-.4.9-.7a25.1,25.1,0,0,1,3.7-3,5.4,5.4,0,0,1,2.7-1,1.3,1.3,0,0,1,.9.3.9.9,0,0,1,.3.7,2,2,0,0,1-.2.9,1.6,1.6,0,0,1-.5.6l-1.3.9-.9,1-1.3,1.1-.4.5-.4.4-.9.7a5.4,5.4,0,0,1-1,1.3l-2.1,1.9-.6.7-1.1,1.5.2.2,1.1-.6,1.2-1,1.3-1.2.7-.6.3-.2.4-.2a9.8,9.8,0,0,1,2-1.9,3.2,3.2,0,0,1,1.7-.6.8.8,0,0,1,.7.4,2.4,2.4,0,0,1,.3,1.1q0,1.2,0,2.2a2.1,2.1,0,0,0,.4,1.3,1.3,1.3,0,0,0,1.1.6h.4l.4-.3.3-.4.3-.4.3-.2.3-.3.5,1.2.3.9-1.1,1-1.1,1-1.3.8-1.3.3a3,3,0,0,1-2.3-.9,4.2,4.2,0,0,1-1-2.6,1.7,1.7,0,0,0-.1-.4l-.2-.5-.3.2-.3.3-.8.6-1.1.8L112.4,44l-.8.8-1.1.8-1.4.8-.8.4-.5.2a2.2,2.2,0,0,1-1.6-.5,2.3,2.3,0,0,1-.5-1.7,2.8,2.8,0,0,1,.3-1.2,3.9,3.9,0,0,1,.8-1.1,3.4,3.4,0,0,0,0-.5v-.2l-.2-.3-.3-.7-.4-.9.3-.4Z" transform="translate(-6.5 -11)"/></svg>