<svg xmlns="http://www.w3.org/2000/svg" xmlns:xlink="http://www.w3.org/1999/xlink" width="642.48" height="389.445" viewBox="0 0 642.48 389.445">
  <defs>
    <filter id="content_frame" x="0" y="0" width="642.48" height="389.445" filterUnits="userSpaceOnUse">
      <feOffset dy="3" input="SourceAlpha"/>
      <feGaussianBlur stdDeviation="3" result="blur"/>
      <feFlood flood-opacity="0.09"/>
      <feComposite operator="in" in2="blur"/>
      <feComposite in="SourceGraphic"/>
    </filter>
    <filter id="Sustracción_33" x="46.84" y="244.726" width="242" height="41.5" filterUnits="userSpaceOnUse">
      <feOffset dy="2" input="SourceAlpha"/>
      <feGaussianBlur stdDeviation="0.5" result="blur-2"/>
      <feFlood flood-opacity="0.161"/>
      <feComposite operator="in" in2="blur-2"/>
      <feComposite in="SourceGraphic"/>
    </filter>
    <filter id="Sustracción_33-2" x="46.84" y="173.726" width="298" height="41.5" filterUnits="userSpaceOnUse">
      <feOffset dy="2" input="SourceAlpha"/>
      <feGaussianBlur stdDeviation="0.5" result="blur-3"/>
      <feFlood flood-opacity="0.161"/>
      <feComposite operator="in" in2="blur-3"/>
      <feComposite in="SourceGraphic"/>
    </filter>
    <filter id="Sustracción_33-3" x="46.84" y="102.726" width="366" height="41.5" filterUnits="userSpaceOnUse">
      <feOffset dy="2" input="SourceAlpha"/>
      <feGaussianBlur stdDeviation="0.5" result="blur-4"/>
      <feFlood flood-opacity="0.161"/>
      <feComposite operator="in" in2="blur-4"/>
      <feComposite in="SourceGraphic"/>
    </filter>
    <filter id="Información_del_programa" x="63.34" y="30.726" width="302" height="51" filterUnits="userSpaceOnUse">
      <feOffset dy="3" input="SourceAlpha"/>
      <feGaussianBlur stdDeviation="3" result="blur-5"/>
      <feFlood flood-opacity="0.161"/>
      <feComposite operator="in" in2="blur-5"/>
      <feComposite in="SourceGraphic"/>
    </filter>
  </defs>
  <g id="FIELD_OF_INTEREST" transform="translate(-604.66 -667.274)">
    <g transform="matrix(1, 0, 0, 1, 604.66, 667.27)" filter="url(#content_frame)">
      <path id="content_frame-2" data-name="content_frame" d="M25.593,0H598.887c14.135,0,25.594,9.641,25.594,21.533V349.912c0,11.892-11.459,21.533-25.594,21.533H25.593C11.459,371.445,0,361.8,0,349.912V21.533C0,9.641,11.459,0,25.593,0Z" transform="translate(9 6)" fill="#67a9f0" opacity="0.303"/>
    </g>
    <text id="_0_5_10_20_80_200_300" data-name="0        5            10           20           80          200           300" transform="translate(662 983)" fill="#fff" font-size="20" font-family="HelveticaNeue, Helvetica Neue"><tspan x="0" y="19" xml:space="preserve">0        5            10           20           80          200           300</tspan></text>
    <g id="lines">
      <path id="Trazado_99" data-name="Trazado 99" d="M0,205.5V0" transform="translate(1057.5 765)" fill="none" stroke="#3371b2" stroke-width="2"/>
      <path id="Trazado_293" data-name="Trazado 293" d="M0,205.5V0" transform="translate(1141.5 765)" fill="none" stroke="#3371b2" stroke-width="2"/>
      <line id="Línea_12" data-name="Línea 12" y1="205.5" transform="translate(973.5 765)" fill="none" stroke="#3371b2" stroke-width="2"/>
      <line id="Línea_13" data-name="Línea 13" y1="205.5" transform="translate(889.5 765)" fill="none" stroke="#3371b2" stroke-width="2"/>
      <line id="Línea_14" data-name="Línea 14" y1="205.5" transform="translate(805.5 765)" fill="none" stroke="#3371b2" stroke-width="2"/>
      <line id="Línea_15" data-name="Línea 15" y1="205.5" transform="translate(721.5 765)" fill="none" stroke="#3371b2" stroke-width="2"/>
    </g>
    <g id="pink_Section" transform="translate(-12 -60)">
      <path id="Trazado_115" data-name="Trazado 115" d="M0,0H15V43H0Z" transform="translate(1032 825)" fill="#c40048"/>
      <path id="Sustracción_35" data-name="Sustracción 35" d="M61,1383H-36a19.2,19.2,0,0,1-3-.236v-37.53a19.2,19.2,0,0,1,3-.235H61a19,19,0,0,1,0,38Z" transform="translate(1076 -515)" fill="#e80458"/>
      <path id="Sustracción_34" data-name="Sustracción 34" d="M61,1383H-36a19.2,19.2,0,0,1-3-.236v-37.53a19.2,19.2,0,0,1,3-.235H61a19,19,0,0,1,0,38Z" transform="translate(1076 -520)" fill="#ff5392"/>
      <path id="Trazado_99-2" data-name="Trazado 99" d="M1093-468l-4.79,6.057H1093Z" transform="translate(-56 1330)" fill="#e80458"/>
    </g>
    <g id="green_Section" transform="translate(-85 11)">
      <path id="Sustracción_35-2" data-name="Sustracción 35" d="M61,1383H-36a19.28,19.28,0,0,1-2-.1V1345.1a19.266,19.266,0,0,1,2-.1H61a19,19,0,0,1,0,38Z" transform="translate(1076 -515)" fill="#97b10e"/>
      <path id="Sustracción_34-2" data-name="Sustracción 34" d="M61,1383H-36a19.28,19.28,0,0,1-2-.1V1345.1a19.266,19.266,0,0,1,2-.1H61a19,19,0,0,1,0,38Z" transform="translate(1076 -520)" fill="#bfd930"/>
      <path id="Trazado_99-3" data-name="Trazado 99" d="M1093-467.045l-4.79,5.1H1093Z" transform="translate(-55 1330)" fill="#97b10e"/>
    </g>
    <g id="green_Section-2" data-name="green_Section" transform="translate(-164 82)">
      <rect id="Rectángulo_83" data-name="Rectángulo 83" width="15" height="43" transform="translate(1060 825)" fill="#ea6401"/>
      <path id="Sustracción_35-3" data-name="Sustracción 35" d="M61,1383H-11v-38H61a19,19,0,0,1,0,38Z" transform="translate(1076 -515)" fill="#ff6c00"/>
      <path id="Sustracción_34-3" data-name="Sustracción 34" d="M61,1383H-11v-38H61a19,19,0,0,1,0,38Z" transform="translate(1076 -520)" fill="#f92"/>
      <path id="Trazado_99-4" data-name="Trazado 99" d="M1093-467.045l-4.79,5.1H1093Z" transform="translate(-28 1330)" fill="#ff6c00"/>
    </g>
    <g id="gray_section4" transform="translate(-78 139)">
      <g transform="matrix(1, 0, 0, 1, 682.66, 528.27)" filter="url(#Sustracción_33)">
        <path id="Sustracción_33-4" data-name="Sustracción 33" d="M232.582,38H24.679C11.071,38,0,29.477,0,19S11.071,0,24.679,0H239V33.059L232.582,38Z" transform="translate(48.34 244.73)" fill="#e3e3e3"/>
      </g>
      <path id="Sustracción_32" data-name="Sustracción 32" d="M236,38H19A19.005,19.005,0,0,1,11.6,1.492,18.882,18.882,0,0,1,19,0H236V38Z" transform="translate(734 768)" fill="#f7f7f7"/>
    </g>
    <g id="gray_section2" transform="translate(-78 68)">
      <g transform="matrix(1, 0, 0, 1, 682.66, 599.27)" filter="url(#Sustracción_33-2)">
        <path id="Sustracción_33-5" data-name="Sustracción 33" d="M289.075,38H22.784C10.221,38,0,29.477,0,19S10.221,0,22.784,0H295V33.059L289.075,38Z" transform="translate(48.34 173.73)" fill="#e3e3e3"/>
      </g>
      <path id="Sustracción_32-2" data-name="Sustracción 32" d="M292,38H19A19.005,19.005,0,0,1,11.6,1.492,18.883,18.883,0,0,1,19,0H292V38Z" transform="translate(735 768)" fill="#f7f7f7"/>
    </g>
    <g id="gray_section1" transform="translate(-78 -3)">
      <g transform="matrix(1, 0, 0, 1, 682.66, 670.27)" filter="url(#Sustracción_33-3)">
        <path id="Sustracción_33-6" data-name="Sustracción 33" d="M357.061,38H22.838C10.245,38,0,29.477,0,19S10.245,0,22.838,0H363V33.059L357.061,38Z" transform="translate(48.34 102.73)" fill="#e3e3e3"/>
      </g>
      <path id="Sustracción_32-3" data-name="Sustracción 32" d="M360,38H19A19.005,19.005,0,0,1,11.6,1.492,18.882,18.882,0,0,1,19,0H360V38Z" transform="translate(734 768)" fill="#f7f7f7"/>
    </g>
    <text id="_120_proyectos_presentados_55_proyectos_aproados_20_proyectos_ejecutados" data-name="120 proyectos presentados
55 proyectos aproados
20 proyectos ejecutados" transform="translate(676 776)" fill="#1f5ea1" font-size="15" font-family="FuturaBT-Light, Futura" font-weight="300"><tspan x="0" y="14">120 proyectos presentados</tspan><tspan x="0" y="84">55 proyectos aproados</tspan><tspan x="0" y="154">20 proyectos ejecutados</tspan></text>
    <g transform="matrix(1, 0, 0, 1, 604.66, 667.27)" filter="url(#Información_del_programa)">
      <text id="Información_del_programa-2" data-name="Información del programa" transform="translate(72.34 36.73)" fill="#fff" font-size="22" font-family="Helvetica"><tspan x="0" y="17">Información del programa</tspan></text>
    </g>
    <circle id="Elipse_47" data-name="Elipse 47" cx="7" cy="7" r="7" transform="translate(653 709)" fill="#fff"/>
    <text id="Conocer_más" data-name="Conocer más" transform="translate(1119 721)" fill="#fff" font-size="18" font-family="FuturaBT-Light, Futura" font-weight="300"><tspan x="0" y="0">Conocer más</tspan></text>
    <g id="Grupo_206" data-name="Grupo 206" transform="translate(1081.978 700.564)">
      <path id="Oval_2" data-name="Oval 2" d="M14.387,0A14.387,14.387,0,1,1,0,14.387,14.387,14.387,0,0,1,14.387,0Z" transform="translate(0 0)" fill="none" stroke="#e0e0e0" stroke-width="1" opacity="0.552"/>
      <path id="Oval_2_Copy_3" data-name="Oval 2 Copy 3" d="M10.994,0A10.994,10.994,0,1,1,0,10.994,10.994,10.994,0,0,1,10.994,0Z" transform="translate(3.529 3.529)" fill="rgba(227,227,227,0.51)" opacity="0.613"/>
      <text id="_" data-name="+" transform="translate(8.022 21.436)" fill="#fff" font-size="19" font-family="Futura-Bold, Futura" font-weight="700"><tspan x="0" y="0">+</tspan></text>
    </g>
  </g>
</svg>
