<svg xmlns="http://www.w3.org/2000/svg" xmlns:xlink="http://www.w3.org/1999/xlink" width="633.907" height="389.587" viewBox="0 0 633.907 389.587">
  <defs>
    <linearGradient id="linear-gradient" x1="0.5" x2="0.5" y2="1" gradientUnits="objectBoundingBox">
      <stop offset="0" stop-color="#67a9f0"/>
      <stop offset="1" stop-color="#3794fa"/>
    </linearGradient>
    <filter id="main_statistics_frame" x="0" y="0" width="633.907" height="389.587" filterUnits="userSpaceOnUse">
      <feOffset dy="3" input="SourceAlpha"/>
      <feGaussianBlur stdDeviation="3" result="blur"/>
      <feFlood flood-color="#003180" flood-opacity="0.282"/>
      <feComposite operator="in" in2="blur"/>
      <feComposite in="SourceGraphic"/>
    </filter>
    <filter id="_1_2_3_4_5_6_7_8_9_10_11_12_13_14_15" x="56" y="349.786" width="546" height="32" filterUnits="userSpaceOnUse">
      <feOffset dy="2" input="SourceAlpha"/>
      <feGaussianBlur stdDeviation="1" result="blur-2"/>
      <feFlood flood-opacity="0.161"/>
      <feComposite operator="in" in2="blur-2"/>
      <feComposite in="SourceGraphic"/>
    </filter>
    <filter id="_180_150_120_90_60_30_20" x="24" y="128.786" width="25" height="184" filterUnits="userSpaceOnUse">
      <feOffset dy="2" input="SourceAlpha"/>
      <feGaussianBlur stdDeviation="1" result="blur-3"/>
      <feFlood flood-opacity="0.161"/>
      <feComposite operator="in" in2="blur-3"/>
      <feComposite in="SourceGraphic"/>
    </filter>
    <linearGradient id="linear-gradient-2" x1="0.5" x2="0.5" y2="1" gradientUnits="objectBoundingBox">
      <stop offset="0" stop-color="#79f0ff"/>
      <stop offset="0.97" stop-color="#00e0b5"/>
      <stop offset="1" stop-color="#ffeb00"/>
    </linearGradient>
    <linearGradient id="linear-gradient-3" x1="0.5" x2="0.5" y2="1" gradientUnits="objectBoundingBox">
      <stop offset="0" stop-color="#10b6ff"/>
      <stop offset="1" stop-color="#1e8dde"/>
    </linearGradient>
    <linearGradient id="linear-gradient-4" x1="0.5" x2="0.5" y2="1" gradientUnits="objectBoundingBox">
      <stop offset="0" stop-color="#67a9f0"/>
      <stop offset="0.335" stop-color="#62a2e5"/>
      <stop offset="0.581" stop-color="#081e36"/>
      <stop offset="1" stop-color="#345578"/>
    </linearGradient>
    <linearGradient id="linear-gradient-5" x1="0.539" y1="0.861" x2="0.54" y2="0.5" gradientUnits="objectBoundingBox">
      <stop offset="0" stop-color="#91d1ff"/>
      <stop offset="1" stop-color="#3681e8"/>
    </linearGradient>
    <linearGradient id="linear-gradient-6" x1="0.5" x2="0.5" y2="1" gradientUnits="objectBoundingBox">
      <stop offset="0" stop-color="#e2ff80"/>
      <stop offset="1" stop-color="#82c405"/>
    </linearGradient>
    <linearGradient id="linear-gradient-7" x1="0.5" x2="0.5" y2="1" gradientUnits="objectBoundingBox">
      <stop offset="0" stop-color="#def560"/>
      <stop offset="1" stop-color="#aac610"/>
    </linearGradient>
    <filter id="_15_4_hr" x="50" y="38.786" width="141" height="63" filterUnits="userSpaceOnUse">
      <feOffset dy="3" input="SourceAlpha"/>
      <feGaussianBlur stdDeviation="3" result="blur-4"/>
      <feFlood flood-opacity="0.161"/>
      <feComposite operator="in" in2="blur-4"/>
      <feComposite in="SourceGraphic"/>
    </filter>
    <filter id="_3_1_hr" x="241" y="37.786" width="108" height="63" filterUnits="userSpaceOnUse">
      <feOffset dy="3" input="SourceAlpha"/>
      <feGaussianBlur stdDeviation="3" result="blur-5"/>
      <feFlood flood-opacity="0.161"/>
      <feComposite operator="in" in2="blur-5"/>
      <feComposite in="SourceGraphic"/>
    </filter>
    <filter id="_23" x="407" y="37.786" width="71" height="63" filterUnits="userSpaceOnUse">
      <feOffset dy="3" input="SourceAlpha"/>
      <feGaussianBlur stdDeviation="3" result="blur-6"/>
      <feFlood flood-opacity="0.161"/>
      <feComposite operator="in" in2="blur-6"/>
      <feComposite in="SourceGraphic"/>
    </filter>
  </defs>
  <g id="Main_Graph" transform="translate(-43 -159)">
    <g transform="matrix(1, 0, 0, 1, 43, 159)" filter="url(#main_statistics_frame)">
      <path id="main_statistics_frame-2" data-name="main_statistics_frame" d="M19.13,1H598.778c10.013,0,18.13,10.929,18.13,24.411V348.177c0,13.482-8.117,24.411-18.13,24.411H19.13C9.117,372.587,1,361.658,1,348.177V25.411C1,11.929,9.117,1,19.13,1Z" transform="translate(8 5)" opacity="0.297" fill="url(#linear-gradient)"/>
    </g>
    <g transform="matrix(1, 0, 0, 1, 43, 159)" filter="url(#_1_2_3_4_5_6_7_8_9_10_11_12_13_14_15)">
      <text id="_1_2_3_4_5_6_7_8_9_10_11_12_13_14_15-2" data-name="1           2           3           4           5           6           7           8           9           10           11         12         13         14         15" transform="translate(59 350.79)" fill="#fff" font-size="20" font-family="HelveticaNeue, Helvetica Neue"><tspan x="0" y="19" xml:space="preserve">1           2           3           </tspan><tspan y="19" xml:space="preserve" fill="#bbd52a">4           5           6</tspan><tspan y="19" xml:space="preserve">           7           8           </tspan></text>
    </g>
    <g transform="matrix(1, 0, 0, 1, 43, 159)" filter="url(#_180_150_120_90_60_30_20)">
      <text id="_180_150_120_90_60_30_20-2" data-name="180
150
120
90
60
30
20" transform="translate(27 129.79)" fill="#fff" font-size="20" font-family="Helvetica"><tspan x="0" y="15">1</tspan><tspan x="0" y="63">8</tspan><tspan x="0" y="111">0</tspan><tspan x="0" y="159">1</tspan></text>
    </g>
    <g id="graph" transform="translate(104.74 314.074)">
      <g id="Layer_3">
        <path id="Trazado_87" data-name="Trazado 87" d="M838.4,948.188s47,40.031,111.2,38.276c0,0,36.729.3,76.122-44.955,0,0,32.39-47.052,53.257-46.369,19.938.661,25.1,5.9,68.433,32.69A26.914,26.914,0,0,0,1169.124,931c7.326-2.12,16.165-7.386,24.217-19.491a10.719,10.719,0,0,0,.848-1.5c3.653-7.5,33.944-67.57,67.142-65.655,35.417,2.029,51.481,24.484,51.481,24.484,19.192,23.686,44.5,60.753,67.667,54.393v105.891H838.42V948.188Z" transform="translate(-838.4 -844.304)" opacity="0.88" fill="url(#linear-gradient-2)"/>
      </g>
      <g id="Layer_2" transform="translate(0 38.769)">
        <path id="Trazado_114" data-name="Trazado 114" d="M816.4,211.416s29.827-5.4,96.626-29.112a25.934,25.934,0,0,0,2.825-1.185c7.406-3.625,42.844-20.813,51.522-21.224,9.687-.456,22.6.456,50.048,28.268,20.5,20.768,44.378,3.4,55.134-6.725a48.213,48.213,0,0,1,30.614-13.45c12.351-.593,28.879,2.348,48.656,14.7,35.377,22.113,60.361-18.853,69.563-37.729a46.1,46.1,0,0,1,20.08-21.041c9.868-5.061,23.612-8.389,39.514-1.869,32.29,13.222,62.561,16.87,77.495,6.383V264.3H816.42V211.416Z" transform="translate(-816.4 -114.508)" fill="#d30450"/>
        <path id="Trazado_88" data-name="Trazado 88" d="M816.4,211.416s29.827-5.4,96.626-29.112a25.934,25.934,0,0,0,2.825-1.185c7.406-3.625,42.844-20.813,51.522-21.224,9.687-.456,22.6.456,50.048,28.268,20.5,20.768,44.378,3.4,55.134-6.725a48.213,48.213,0,0,1,30.614-13.45c12.351-.593,28.879,2.348,48.656,14.7,35.377,22.113,60.361-18.853,69.563-37.729a46.1,46.1,0,0,1,20.08-21.041c9.868-5.061,23.612-8.389,39.514-1.869,32.29,13.222,62.561,16.87,77.495,6.383V264.3H816.42V211.416Z" transform="translate(-816.4 -118.436)" fill="url(#linear-gradient-3)"/>
      </g>
    </g>
    <g id="lines" transform="translate(147.099 325.91)" opacity="0.392">
      <line id="Línea_16" data-name="Línea 16" y1="170.001" transform="translate(0 2.805)" fill="none" stroke="#ffccdf" stroke-width="1"/>
      <line id="Línea_17" data-name="Línea 17" y1="170.001" transform="translate(40.957 2.805)" fill="none" stroke="#ffccdf" stroke-width="1"/>
      <line id="Línea_18" data-name="Línea 18" y1="170.001" transform="translate(82.476 2.805)" fill="none" stroke="#ffccdf" stroke-width="1"/>
      <line id="Línea_19" data-name="Línea 19" y1="170.001" transform="translate(107.212 2.805)" fill="none" stroke="#ffccdf" stroke-width="1"/>
      <line id="Línea_20" data-name="Línea 20" y1="170.001" transform="translate(142.787 2.805)" fill="none" stroke="#ffccdf" stroke-width="1"/>
      <line id="Línea_21" data-name="Línea 21" y1="170.001" transform="translate(178.849 2.805)" fill="none" stroke="#ffccdf" stroke-width="1"/>
      <line id="Línea_22" data-name="Línea 22" y1="170.001" transform="translate(214.423 2.805)" fill="none" stroke="#ffccdf" stroke-width="1"/>
      <line id="Línea_23" data-name="Línea 23" y1="170.001" transform="translate(249.998 2.805)" fill="none" stroke="#ffccdf" stroke-width="1"/>
      <line id="Línea_24" data-name="Línea 24" y1="170.001" transform="translate(285.573 2.805)" fill="none" stroke="#ffccdf" stroke-width="1"/>
      <line id="Línea_25" data-name="Línea 25" y1="170.001" transform="translate(321.635 2.805)" fill="none" stroke="#ffccdf" stroke-width="1"/>
      <line id="Línea_26" data-name="Línea 26" y1="170.001" transform="translate(357.21 2.805)" fill="none" stroke="#ffccdf" stroke-width="1"/>
      <line id="Línea_27" data-name="Línea 27" y1="170.001" transform="translate(381.946 2.805)" fill="none" stroke="#ffccdf" stroke-width="1"/>
      <line id="Línea_28" data-name="Línea 28" y1="170.001" transform="translate(423.464 2.805)" fill="none" stroke="#ffccdf" stroke-width="1"/>
      <line id="Línea_29" data-name="Línea 29" y1="170.001" transform="translate(464.422)" fill="none" stroke="#ffccdf" stroke-width="1"/>
    </g>
    <g id="graph_shadow" transform="translate(103.147 309.775)">
      <g id="Layer_2_copy" transform="translate(0 0)">
        <path id="Trazado_89" data-name="Trazado 89" d="M816.4,141.942s29.656-5.375,96.07-28.963a25.794,25.794,0,0,0,2.809-1.179c7.364-3.606,42.6-20.708,51.225-21.116,9.631-.454,22.473.454,49.761,28.124,20.386,20.662,44.123,3.379,54.817-6.691a47.921,47.921,0,0,1,30.438-13.382c12.28-.59,28.713,2.336,48.376,14.629,35.173,22,60.014-18.757,69.163-37.537a45.853,45.853,0,0,1,19.965-20.934c9.812-5.035,23.476-8.347,39.287-1.86,32.1,13.155,62.2,16.784,77.049,6.351" transform="translate(-816.4 -49.436)" fill="none" stroke="#525252" stroke-miterlimit="10" stroke-width="12" opacity="0.169"/>
      </g>
    </g>
    <path id="Trazado_93" data-name="Trazado 93" d="M0,0H104.918V334H0Z" transform="translate(203.916 165)" opacity="0.101" fill="url(#linear-gradient-4)"/>
    <g id="bold_graph" transform="translate(103.056 299.762)">
      <path id="Trazado_90" data-name="Trazado 90" d="M94,238.487s61.215-15.71,111.209-36.3c0,0,23.979-14.419,40.363-15.261,13.8-.729,28.8,9.257,47.661,29.456,0,0,11.568,11.333,30.582,6.789a39.723,39.723,0,0,0,16.384-8.472c7.4-6.228,24.625-19.581,36.739-20.423,0,0,21.2-2.244,46.668,12.736,0,0,22.192,17.954,46.668.393a120.771,120.771,0,0,0,27.5-33.832c4.667-8.809,15.093-19.693,23.334-23.9a37.377,37.377,0,0,1,24.972-3.815,35.747,35.747,0,0,1,6.8,2.076c11.468,4.881,58.832,23.34,80.527,6l-3.326-5.611s-13.256,14.251-60.768-1.515q-3.947-1.347-7.745-3.03a59.546,59.546,0,0,0-28.348-4.545c-13.008,1.122-24.327,7.574-32.767,18.8-4.021,5.33-9.185,13.3-14.894,22.723-4.915,8.135-11.071,15.485-18.469,20.647-9.929,6.9-24.079,11.446-40.164.393,0,0-34.107-23.957-66.527-9.706a77.907,77.907,0,0,0-18.469,13.241A42.666,42.666,0,0,1,332.5,212.4c-9.78,5.274-27.6,10.38-43.59-9.482,0,0-26.958-36.469-65.186-17.224,0,0-46.321,26.2-130.422,44.885Z" transform="translate(-93.3 -136.221)" fill="#3681e8"/>
      <path id="Trazado_91" data-name="Trazado 91" d="M94,238.487s61.215-15.71,111.209-36.3c0,0,23.979-14.419,40.363-15.261,13.8-.729,28.8,9.257,47.661,29.456,0,0,11.568,11.333,30.582,6.789a39.723,39.723,0,0,0,16.384-8.472c7.4-6.228,24.625-19.581,36.739-20.423,0,0,21.2-2.244,46.668,12.736,0,0,22.192,17.954,46.668.393a120.771,120.771,0,0,0,27.5-33.832c4.667-8.809,15.093-19.693,23.334-23.9a37.377,37.377,0,0,1,24.972-3.815,35.747,35.747,0,0,1,6.8,2.076c11.468,4.881,58.832,23.34,80.527,6l-3.326-5.611s-13.256,14.251-60.768-1.515q-3.947-1.347-7.745-3.03a59.546,59.546,0,0,0-28.348-4.545c-13.008,1.122-24.327,7.574-32.767,18.8-4.021,5.33-9.185,13.3-14.894,22.723-4.915,8.135-11.071,15.485-18.469,20.647-9.929,6.9-24.079,11.446-40.164.393,0,0-34.107-23.957-66.527-9.706a77.907,77.907,0,0,0-18.469,13.241A42.666,42.666,0,0,1,332.5,212.4c-9.78,5.274-27.6,10.38-43.59-9.482,0,0-26.958-36.469-65.186-17.224,0,0-46.321,26.2-130.422,44.885Z" transform="translate(-93.3 -139.026)" fill="url(#linear-gradient-5)"/>
    </g>
    <g id="bold_graph-2" data-name="bold_graph" transform="translate(203.916 343.152)">
      <path id="Sustracción_38" data-name="Sustracción 38" d="M104.918,36.869h0c-.475-.353-.722-.566-.729-.571C82.659,15.9,66.54,6.8,51.926,6.8c-.535,0-1.067.012-1.6.037C32.031,7.673,4.984,21.958,4.713,22.1Q2.37,22.956,0,23.8V16.461C16.662,10.076,25.552,5.651,25.64,5.607A61.825,61.825,0,0,1,50.871,0C79.9,0,99.116,22.6,99.307,22.832a52.654,52.654,0,0,0,5.611,5.349v8.687Z" transform="translate(0 2.805)" fill="#829a00"/>
      <path id="Sustracción_37" data-name="Sustracción 37" d="M104.918,36.869h0c-.475-.353-.722-.566-.729-.571C82.658,15.9,66.539,6.8,51.925,6.8q-.8,0-1.6.037C32.032,7.673,4.984,21.958,4.713,22.1Q2.37,22.956,0,23.8V16.461C16.662,10.076,25.552,5.651,25.64,5.607A61.825,61.825,0,0,1,50.87,0C79.9,0,99.116,22.6,99.307,22.831a52.661,52.661,0,0,0,5.611,5.349v8.688Z" fill="url(#linear-gradient-6)"/>
    </g>
    <rect id="Rectángulo_84" data-name="Rectángulo 84" width="105" height="26" transform="translate(204 476.786)" fill="#90aa00"/>
    <g id="Layer_2-2" data-name="Layer_2" transform="translate(203.916 394.231)">
      <path id="Sustracción_31" data-name="Sustracción 31" d="M104.918,104.481H0v-87.2C15.1,10.99,41.591.391,49.321.071,50.5.023,51.488,0,52.42,0c10.7,0,25.312,3.2,52.5,26.974Z" transform="translate(0 0)" fill="url(#linear-gradient-7)"/>
    </g>
    <g id="time_of_reading" transform="translate(102.445 203.66)">
      <g transform="matrix(1, 0, 0, 1, -59.45, -44.66)" filter="url(#_15_4_hr)">
        <text id="_15_4_hr-2" data-name="15,4 hr" transform="translate(59 44.79)" fill="#fff" font-size="30" font-family="Futura-Medium, Futura" font-weight="500"><tspan x="0" y="31">15,4 </tspan><tspan y="31" font-family="FuturaBT-Light, Futura" font-weight="300">hr</tspan></text>
      </g>
      <text id="dato" transform="translate(4.555 55.126)" fill="#fff" font-size="24" font-family="Helvetica-Light, Helvetica" font-weight="300"><tspan x="0" y="18">dato</tspan></text>
    </g>
    <g id="Montly_average" transform="translate(269.545 202.609)">
      <g transform="matrix(1, 0, 0, 1, -226.54, -43.61)" filter="url(#_3_1_hr)">
        <text id="_3_1_hr-2" data-name="3,1 hr" transform="translate(250 43.79)" fill="#fff" font-size="30" font-family="Futura-Medium, Futura" font-weight="500"><tspan x="0" y="31">3,1 </tspan><tspan y="31" font-family="FuturaBT-Light, Futura" font-weight="300">hr</tspan></text>
      </g>
      <text id="dato-2" data-name="dato" transform="translate(0.455 59.177)" fill="#fff" font-size="24" font-family="Helvetica-Light, Helvetica" font-weight="300"><tspan x="28.988" y="18">dato</tspan></text>
    </g>
    <g id="Book_read_Stat" transform="translate(413.523 202.609)">
      <g transform="matrix(1, 0, 0, 1, -370.52, -43.61)" filter="url(#_23)">
        <text id="_23-2" data-name="23" transform="translate(416 43.79)" fill="#fff" font-size="30" font-family="Futura-Medium, Futura" font-weight="500"><tspan x="0" y="31">23</tspan></text>
      </g>
      <text id="dato-3" data-name="dato" transform="translate(0.477 51.177)" fill="#fff" font-size="24" font-family="Helvetica-Light, Helvetica" font-weight="300"><tspan x="35.488" y="18">dato</tspan></text>
    </g>
    <g id="decrease" transform="translate(265.341 211.017)">
      <text id="_10" data-name="%10" transform="translate(-0.341 -0.23)" fill="#fff" font-size="26" font-family="Helvetica-Light, Helvetica" font-weight="300"><tspan x="0" y="20">%</tspan></text>
      <g id="noun_992214_cc" transform="translate(7.365 20.683)">
        <path id="Trazado_95" data-name="Trazado 95" d="M3.411,7a1.109,1.109,0,0,1,0-1.571c1.25-1.248,2.48-2.479,3.728-3.709A.845.845,0,0,0,7.083.467L6.894.3A1.037,1.037,0,0,0,5.361.391L.327,5.425A1.108,1.108,0,0,0,.327,7L5.361,12.03a1.037,1.037,0,0,0,1.533.095l.189-.189a.824.824,0,0,0,.056-1.231C5.891,9.475,4.661,8.226,3.411,7Z" transform="translate(0 7.391) rotate(-90)" fill="#ff4500"/>
      </g>
    </g>
    <g id="increase" transform="translate(437.695 211.017)">
      <text id="_8" data-name="%8" transform="translate(0.305 -0.23)" fill="#fff" font-size="20" font-family="Helvetica-Light, Helvetica" font-weight="300"><tspan x="0" y="15">%</tspan></text>
      <g id="noun_992214_cc-2" data-name="noun_992214_cc" transform="translate(15.953 24.708) rotate(180)">
        <path id="Trazado_96" data-name="Trazado 96" d="M3.411,7a1.109,1.109,0,0,1,0-1.571c1.25-1.248,2.48-2.479,3.728-3.709A.845.845,0,0,0,7.083.467L6.894.3A1.037,1.037,0,0,0,5.361.391L.327,5.425A1.108,1.108,0,0,0,.327,7L5.361,12.03a1.037,1.037,0,0,0,1.533.095l.189-.189a.824.824,0,0,0,.056-1.231C5.891,9.475,4.661,8.226,3.411,7Z" transform="translate(0 7.391) rotate(-90)" fill="#c0e600"/>
      </g>
    </g>
  </g>
</svg>
