<svg xmlns="http://www.w3.org/2000/svg" width="57.406" height="57.406" viewBox="0 0 57.406 57.406">
  <g id="Grupo_311" data-name="Grupo 311" transform="translate(0.5 0.5)">
    <circle id="Oval_2" data-name="Oval 2" cx="28.203" cy="28.203" r="28.203" transform="translate(0 0)" fill="none" stroke="#e5e9ff" stroke-miterlimit="10" stroke-width="1"/>
    <path id="Oval_2_Copy_3" data-name="Oval 2 Copy 3" d="M21.551,0A21.551,21.551,0,1,1,0,21.551,21.551,21.551,0,0,1,21.551,0Z" transform="translate(6.945 6.918)" fill="#e5e9ff" opacity="0.439"/>
    <g id="Group_2" data-name="Group 2" transform="translate(16.158 15.991)">
      <path id="Stroke_66" data-name="Stroke 66" d="M21.291,6.063A11.27,11.27,0,1,1,15.463.8" transform="translate(0.554 2.36)" fill="none" stroke="#fff" stroke-miterlimit="10" stroke-width="1"/>
      <path id="Stroke_67" data-name="Stroke 67" d="M3.651,0S0,2.281,0,11.286C0,21.1,3.651,22.57,3.651,22.57" transform="translate(6.962 2.347)" fill="none" stroke="#fff" stroke-miterlimit="10" stroke-width="1"/>
      <path id="Stroke_68" data-name="Stroke 68" d="M3.506,0a28.76,28.76,0,0,1,.145,2.96C3.651,12.776,0,14.244,0,14.244" transform="translate(13.128 10.673)" fill="none" stroke="#fff" stroke-miterlimit="10" stroke-width="1"/>
      <path id="Stroke_69" data-name="Stroke 69" d="M0,0A6.539,6.539,0,0,1,2,2.6" transform="translate(13.128 2.347)" fill="none" stroke="#fff" stroke-miterlimit="10" stroke-width="1"/>
      <path id="Stroke_70" data-name="Stroke 70" d="M0,.5H10.178" transform="translate(2.484 6.841)" fill="none" stroke="#fff" stroke-miterlimit="10" stroke-width="1"/>
      <path id="Stroke_71" data-name="Stroke 71" d="M0,.5H18.82" transform="translate(2.484 19.291)" fill="none" stroke="#fff" stroke-miterlimit="10" stroke-width="1"/>
      <path id="Stroke_72" data-name="Stroke 72" d="M0,.5H23.125" transform="translate(0 13.145)" fill="none" stroke="#fff" stroke-miterlimit="10" stroke-width="1"/>
      <path id="Stroke_73" data-name="Stroke 73" d="M7.737,3.345V4.637A1.056,1.056,0,0,1,6.687,5.72H3.476l-2.158,1.5V5.72H0V0H3.254" transform="translate(12.662 4.952)" fill="none" stroke="#fff" stroke-miterlimit="10" stroke-width="1"/>
      <path id="Stroke_74" data-name="Stroke 74" d="M9.454,10.63V8.423h1.94V0H0V6.83A1.554,1.554,0,0,0,1.543,8.423h4.73Z" transform="translate(16.015 0)" fill="none" stroke="#fff" stroke-miterlimit="10" stroke-width="1"/>
    </g>
  </g>
</svg>
