<svg xmlns="http://www.w3.org/2000/svg" width="57.632" height="57.632" viewBox="0 0 57.632 57.632">
  <g id="Grupo_310" data-name="Grupo 310" transform="translate(0.5 0.5)">
    <circle id="Oval_2" data-name="Oval 2" cx="28.316" cy="28.316" r="28.316" transform="translate(0 0)" fill="none" stroke="#e5e9ff" stroke-miterlimit="10" stroke-width="1"/>
    <path id="Oval_2_Copy_3" data-name="Oval 2 Copy 3" d="M21.638,0A21.638,21.638,0,1,1,0,21.638,21.638,21.638,0,0,1,21.638,0Z" transform="translate(6.945 6.945)" fill="#e5e9ff" opacity="0.439"/>
    <g id="Group_3" data-name="Group 3" transform="translate(17.355 17.16)">
      <g id="wallet">
        <g id="wallet-2" data-name="wallet">
          <path id="Shape" d="M19.422,22H2.707A2.71,2.71,0,0,1,0,19.293V2.55A2.553,2.553,0,0,1,2.55,0H16.042A2.581,2.581,0,0,1,18.62,2.579v.8h.8A2.581,2.581,0,0,1,22,5.958V19.422A2.581,2.581,0,0,1,19.422,22ZM1.719,4.96V19.293a.989.989,0,0,0,.988.988H19.422a.86.86,0,0,0,.859-.859V16.085H16.916a3.395,3.395,0,1,1,0-6.79h3.366V5.958a.86.86,0,0,0-.859-.859H2.55A2.534,2.534,0,0,1,1.719,4.96Zm15.2,6.054a1.676,1.676,0,0,0,0,3.352h3.366V11.014ZM2.55,1.719a.831.831,0,1,0,0,1.661H16.9v-.8a.86.86,0,0,0-.859-.86Z" transform="translate(0)" fill="#fff"/>
        </g>
      </g>
      <path id="_" data-name="$" d="M5.348,9.016a2.684,2.684,0,0,1-1.6.868V11.2H2.31V9.912A2.572,2.572,0,0,1,.658,9.051,3.019,3.019,0,0,1,0,7.182H1.61a1.508,1.508,0,0,0,.413.987,1.466,1.466,0,0,0,.987.287q1.2,0,1.2-1.092a1.069,1.069,0,0,0-.238-.749,1.352,1.352,0,0,0-.77-.357L2.52,6.132a3.092,3.092,0,0,1-1.743-.8A2.287,2.287,0,0,1,.21,3.682,2.578,2.578,0,0,1,.77,1.974a2.591,2.591,0,0,1,1.54-.868V0H3.752V1.12a2.467,2.467,0,0,1,1.442.847,2.9,2.9,0,0,1,.6,1.687H4.144a1.365,1.365,0,0,0-.336-.875,1.159,1.159,0,0,0-.84-.273,1.1,1.1,0,0,0-.8.273,1.036,1.036,0,0,0-.28.777.918.918,0,0,0,.266.7,1.712,1.712,0,0,0,.868.364l.8.154a2.659,2.659,0,0,1,1.575.8,2.428,2.428,0,0,1,.525,1.652A2.665,2.665,0,0,1,5.348,9.016Z" transform="translate(5 7)" fill="#fff"/>
    </g>
  </g>
</svg>
