<svg xmlns="http://www.w3.org/2000/svg" xmlns:xlink="http://www.w3.org/1999/xlink" width="31" height="26" viewBox="0 0 31 26">
  <defs>
    <clipPath id="clip-path">
      <rect id="Rectángulo_407" data-name="Rectángulo 407" width="31" height="26" transform="translate(-0.43 0.573)" fill="#2843c4"/>
    </clipPath>
  </defs>
  <g id="Enmascarar_grupo_3" data-name="Enmascarar grupo 3" transform="translate(0.43 -0.573)" clip-path="url(#clip-path)">
    <g id="training" transform="translate(1.437 0.7)">
      <path id="Trazado_394" data-name="Trazado 394" d="M34.906,25.84a.438.438,0,0,1-.185-.041l-7.369-3.454a.431.431,0,0,1,0-.781l7.369-3.454a.435.435,0,0,1,.369,0l7.369,3.454a.431.431,0,0,1,0,.781L35.091,25.8A.438.438,0,0,1,34.906,25.84Zm-6.351-3.886,6.351,2.977,6.351-2.977-6.351-2.977Z" transform="translate(-21.902 -14.614)" fill="#2843c4"/>
      <path id="Trazado_395" data-name="Trazado 395" d="M44.032,48.208a.436.436,0,0,1-.194-.045l-5.2-2.591a.432.432,0,0,1-.24-.386v-3.3a.431.431,0,0,1,.2-.364.436.436,0,0,1,.417-.026l5.018,2.352,5.017-2.352a.434.434,0,0,1,.618.391v3.3a.432.432,0,0,1-.24.386l-5.2,2.591A.436.436,0,0,1,44.032,48.208Zm-4.768-3.289,4.768,2.375L48.8,44.919V42.565l-4.584,2.148a.435.435,0,0,1-.369,0l-4.584-2.148Z" transform="translate(-31.027 -33.529)" fill="#2843c4"/>
      <path id="Trazado_396" data-name="Trazado 396" d="M73.3,37H65.933a.432.432,0,1,1,0-.864H73.3a.432.432,0,1,1,0,.864Z" transform="translate(-52.929 -29.23)" fill="#2843c4"/>
      <path id="Trazado_397" data-name="Trazado 397" d="M104.33,40.887a.433.433,0,0,1-.433-.432V36.57a.433.433,0,0,1,.867,0v3.886A.433.433,0,0,1,104.33,40.887Z" transform="translate(-83.956 -29.23)" fill="#2843c4"/>
      <path id="Trazado_398" data-name="Trazado 398" d="M65.933,34.211a.433.433,0,0,1-.433-.432V32.052a.433.433,0,0,1,.867,0v1.727A.433.433,0,0,1,65.933,34.211Z" transform="translate(-52.929 -25.576)" fill="#2843c4"/>
      <path id="Trazado_399" data-name="Trazado 399" d="M99.813,58.622a.432.432,0,0,1-.36-.671l.867-1.3a.433.433,0,0,1,.721.479l-.867,1.3A.434.434,0,0,1,99.813,58.622Z" transform="translate(-80.306 -45.67)" fill="#2843c4"/>
      <path id="Trazado_400" data-name="Trazado 400" d="M105.2,58.622a.434.434,0,0,1-.361-.192l-.867-1.3a.433.433,0,0,1,.721-.479l.867,1.3a.432.432,0,0,1-.36.671Z" transform="translate(-83.956 -45.67)" fill="#2843c4"/>
      <path id="Trazado_401" data-name="Trazado 401" d="M65.933,56.366a.433.433,0,0,1-.433-.432v-1.3a.433.433,0,0,1,.867,0v1.3A.433.433,0,0,1,65.933,56.366Z" transform="translate(-52.929 -43.845)" fill="#2843c4"/>
      <path id="Trazado_402" data-name="Trazado 402" d="M25.576,16.407H.433A.433.433,0,0,1,0,15.975V1.727A1.733,1.733,0,0,1,1.734,0H24.275a1.733,1.733,0,0,1,1.734,1.727V15.975A.433.433,0,0,1,25.576,16.407ZM.867,15.543H25.142V1.727a.866.866,0,0,0-.867-.864H1.734a.866.866,0,0,0-.867.864Z" transform="translate(0 0)" fill="#2843c4"/>
      <path id="Trazado_403" data-name="Trazado 403" d="M24.275,85.628H1.734A1.733,1.733,0,0,1,0,83.9V81.742a.433.433,0,0,1,.433-.432H25.576a.433.433,0,0,1,.433.432V83.9A1.733,1.733,0,0,1,24.275,85.628ZM.867,82.174V83.9a.866.866,0,0,0,.867.864H24.275a.866.866,0,0,0,.867-.864V82.174Z" transform="translate(0 -65.767)" fill="#2843c4"/>
      <path id="Trazado_404" data-name="Trazado 404" d="M61.759,91.208h-2.6a.432.432,0,1,1,0-.864h2.6a.432.432,0,1,1,0,.864Z" transform="translate(-47.453 -73.075)" fill="#2843c4"/>
      <path id="Trazado_405" data-name="Trazado 405" d="M31.142,23.714H9.468a.433.433,0,0,1-.433-.432V9.466a.433.433,0,0,1,.433-.432H31.142a.433.433,0,0,1,.433.432V23.282A.433.433,0,0,1,31.142,23.714ZM9.9,22.851H30.709V9.9H9.9Z" transform="translate(-7.301 -7.307)" fill="#2843c4"/>
      <path id="Trazado_406" data-name="Trazado 406" d="M44.192,120.039H32.921a1.3,1.3,0,1,1,0-2.591H44.192a1.3,1.3,0,1,1,0,2.591Zm-11.271-1.727a.432.432,0,1,0,0,.864H44.192a.432.432,0,1,0,0-.864Z" transform="translate(-25.552 -94.997)" fill="#2843c4"/>
      <path id="Trazado_407" data-name="Trazado 407" d="M50.625,103.7H41.089a.432.432,0,1,1,0-.864c1.438,0,2.167-1.017,2.167-3.022a.433.433,0,0,1,.433-.432h4.335a.433.433,0,0,1,.433.432c0,2.006.729,3.022,2.167,3.022a.432.432,0,1,1,0,.864Zm-7.425-.864h5.314a4.122,4.122,0,0,1-.911-2.591H44.111A4.124,4.124,0,0,1,43.2,102.833Z" transform="translate(-32.852 -80.382)" fill="#2843c4"/>
    </g>
  </g>
</svg>
