<svg xmlns="http://www.w3.org/2000/svg" width="57.406" height="57.406" viewBox="0 0 57.406 57.406">
  <g id="Grupo_308" data-name="Grupo 308" transform="translate(0.5 0.5)">
    <circle id="Oval_2" data-name="Oval 2" cx="28.203" cy="28.203" r="28.203" transform="translate(0 0)" fill="none" stroke="#e5e9ff" stroke-miterlimit="10" stroke-width="1"/>
    <path id="Oval_2_Copy_3" data-name="Oval 2 Copy 3" d="M21.551,0A21.551,21.551,0,1,1,0,21.551,21.551,21.551,0,0,1,21.551,0Z" transform="translate(6.945 6.918)" fill="#e5e9ff" opacity="0.439"/>
    <g id="question" transform="translate(17.44 13.33)">
      <g id="Grupo_183" data-name="Grupo 183" transform="translate(0 9.037)">
        <g id="Grupo_182" data-name="Grupo 182">
          <path id="Trazado_283" data-name="Trazado 283" d="M18.043,181.531a.52.52,0,0,0-.521.519v3.584a2.605,2.605,0,0,1-2.607,2.6H9.284a.52.52,0,0,0-.521.519v1.033l-1.245-1.24a.522.522,0,0,0-.478-.312H3.65a2.605,2.605,0,0,1-2.607-2.6v-8a2.605,2.605,0,0,1,2.607-2.6H8.917a.519.519,0,1,0,0-1.039H3.65A3.647,3.647,0,0,0,0,177.636v8a3.647,3.647,0,0,0,3.65,3.636H6.772L8.914,191.4a.522.522,0,0,0,.89-.367V189.27h5.109a3.647,3.647,0,0,0,3.65-3.636v-3.584A.52.52,0,0,0,18.043,181.531Z" transform="translate(0 -174)" fill="#fff"/>
        </g>
      </g>
      <g id="Grupo_185" data-name="Grupo 185" transform="translate(10.221)">
        <g id="Grupo_184" data-name="Grupo 184">
          <path id="Trazado_284" data-name="Trazado 284" d="M204.9,0h-1.32a7.549,7.549,0,1,0,0,15.1h1.32a7.623,7.623,0,0,0,1.924-.246l1.95,1.941a.522.522,0,0,0,.89-.367V13.421a7.627,7.627,0,0,0,1.992-2.446,7.444,7.444,0,0,0,.824-3.425A7.573,7.573,0,0,0,204.9,0Zm3.928,12.753a.519.519,0,0,0-.208.415v2l-1.276-1.27a.523.523,0,0,0-.522-.129,6.563,6.563,0,0,1-1.923.286h-1.32a6.51,6.51,0,1,1,0-13.021h1.32a6.531,6.531,0,0,1,6.536,6.51A6.454,6.454,0,0,1,208.827,12.753Z" transform="translate(-196)" fill="#fff"/>
        </g>
      </g>
      <g id="Grupo_187" data-name="Grupo 187" transform="translate(16.399 3.639)">
        <g id="Grupo_186" data-name="Grupo 186">
          <path id="Trazado_285" data-name="Trazado 285" d="M318.872,72.107a2.208,2.208,0,0,0-4.41.155.521.521,0,0,0,1.043,0,1.147,1.147,0,0,1,.37-.848,1.162,1.162,0,1,1,1.051,1.981.984.984,0,0,0-.777.963v1.248a.521.521,0,0,0,1.043,0V74.4A2.189,2.189,0,0,0,318.872,72.107Z" transform="translate(-314.462 -70.063)" fill="#fff"/>
        </g>
      </g>
      <g id="Grupo_189" data-name="Grupo 189" transform="translate(18.085 10.717)">
        <g id="Grupo_188" data-name="Grupo 188">
          <path id="Trazado_286" data-name="Trazado 286" d="M347.69,206.482a.518.518,0,1,0,.153.367A.527.527,0,0,0,347.69,206.482Z" transform="translate(-346.8 -206.33)" fill="#fff"/>
        </g>
      </g>
      <g id="Grupo_191" data-name="Grupo 191" transform="translate(2.816 16.101)">
        <g id="Grupo_190" data-name="Grupo 190">
          <path id="Trazado_287" data-name="Trazado 287" d="M65.525,310h-11a.519.519,0,1,0,0,1.039h11a.519.519,0,1,0,0-1.039Z" transform="translate(-54 -310)" fill="#fff"/>
        </g>
      </g>
      <g id="Grupo_193" data-name="Grupo 193" transform="translate(13.819 19.01)">
        <g id="Grupo_192" data-name="Grupo 192">
          <path id="Trazado_288" data-name="Trazado 288" d="M265.89,366.152a.518.518,0,1,0,.153.367A.526.526,0,0,0,265.89,366.152Z" transform="translate(-265 -366)" fill="#fff"/>
        </g>
      </g>
      <g id="Grupo_195" data-name="Grupo 195" transform="translate(2.816 19.01)">
        <g id="Grupo_194" data-name="Grupo 194">
          <path id="Trazado_289" data-name="Trazado 289" d="M63.474,366H54.521a.519.519,0,1,0,0,1.039h8.952a.519.519,0,1,0,0-1.039Z" transform="translate(-54 -366)" fill="#fff"/>
        </g>
      </g>
      <g id="Grupo_197" data-name="Grupo 197" transform="translate(2.816 13.193)">
        <g id="Grupo_196" data-name="Grupo 196">
          <path id="Trazado_290" data-name="Trazado 290" d="M62.135,254H54.521a.519.519,0,1,0,0,1.039h7.614a.519.519,0,1,0,0-1.039Z" transform="translate(-54 -254)" fill="#fff"/>
        </g>
      </g>
    </g>
  </g>
</svg>
