<svg xmlns="http://www.w3.org/2000/svg" width="57.632" height="57.632" viewBox="0 0 57.632 57.632">
  <g id="Grupo_309" data-name="Grupo 309" transform="translate(0.5 0.5)">
    <circle id="Oval_2" data-name="Oval 2" cx="28.316" cy="28.316" r="28.316" transform="translate(0 0)" fill="none" stroke="#e5e9ff" stroke-miterlimit="10" stroke-width="1"/>
    <path id="Oval_2_Copy_3" data-name="Oval 2 Copy 3" d="M21.638,0A21.638,21.638,0,1,1,0,21.638,21.638,21.638,0,0,1,21.638,0Z" transform="translate(6.945 6.945)" fill="#e5e9ff" opacity="0.439"/>
    <path id="Icon_simple-microsoftoutlook" data-name="Icon simple-microsoftoutlook" d="M25.385,8.2V19.278a.814.814,0,0,1-.252.609.846.846,0,0,1-.613.243h-9.04V12.77l1.692,1.3a.605.605,0,0,0,.4.133.654.654,0,0,0,.411-.134ZM15.479,6.058h9.04a.852.852,0,0,1,.574.2.748.748,0,0,1,.262.539l-7.794,6.215-2.083-1.638V6.058ZM14.177,1.3V24.852L0,22.4V3.813L14.179,1.3h0ZM9.895,13.121a4.918,4.918,0,0,0-.93-2.976A2.869,2.869,0,0,0,6.711,8.914,2.883,2.883,0,0,0,4.49,10.145a4.854,4.854,0,0,0-.92,2.976,4.827,4.827,0,0,0,.936,2.952,2.93,2.93,0,0,0,2.222,1.244A2.918,2.918,0,0,0,9,16.079a4.855,4.855,0,0,0,.936-2.958H9.895ZM6.595,10.5a1.416,1.416,0,0,1,1.145.758,3.471,3.471,0,0,1,.46,1.853,3.507,3.507,0,0,1-.46,1.873,1.376,1.376,0,0,1-1.159.745A1.356,1.356,0,0,1,5.423,15a3.355,3.355,0,0,1-.46-1.855,3.265,3.265,0,0,1,.46-1.84,1.458,1.458,0,0,1,1.143-.763Z" transform="translate(16.139 16.039)" fill="#fff"/>
  </g>
</svg>
