<svg xmlns="http://www.w3.org/2000/svg" width="20.571" height="26.525" viewBox="0 0 20.571 26.525">
  <g id="sport-recognition-ribbon-badge" transform="translate(-11.019 0)">
    <g id="Grupo_508" data-name="Grupo 508" transform="translate(11.019 0)">
      <circle id="Elipse_70" data-name="Elipse 70" cx="4.845" cy="4.845" r="4.845" transform="translate(5.44 4.47)" fill="#2c46bd"/>
      <path id="Trazado_393" data-name="Trazado 393" d="M31.559,23.63l-4.192-8.494,2.581-1.368a1.266,1.266,0,0,0,.616-1.489l-.909-2.964.909-2.963a1.266,1.266,0,0,0-.616-1.489L27.209,3.411,25.756.672A1.264,1.264,0,0,0,24.268.056L21.3.965,18.341.056a1.263,1.263,0,0,0-1.488.616L15.4,3.411,12.662,4.863a1.265,1.265,0,0,0-.617,1.489l.909,2.963-.909,2.964a1.266,1.266,0,0,0,.617,1.489l2.581,1.368L11.05,23.63a.3.3,0,0,0,.365.418l3.43-1.146,1.177,3.42a.3.3,0,0,0,.152.172.291.291,0,0,0,.113.03.3.3,0,0,0,.289-.167l4.212-8.534s.061-.158.517-.158.517.159.517.159l4.211,8.533a.3.3,0,0,0,.289.167.3.3,0,0,0,.114-.03.3.3,0,0,0,.152-.172l1.177-3.42,3.43,1.146a.3.3,0,0,0,.365-.418ZM14.281,9.315A7.024,7.024,0,1,1,21.3,16.339,7.023,7.023,0,0,1,14.281,9.315Z" transform="translate(-11.019 0)" fill="#2c46bd"/>
    </g>
  </g>
</svg>
