<svg xmlns="http://www.w3.org/2000/svg" width="23.211" height="33.226" viewBox="0 0 23.211 33.226">
  <g id="Group_10" data-name="Group 10" transform="translate(1.001 1)">
    <path id="Stroke_117" data-name="Stroke 117" d="M6.119,22.235h0a6.049,6.049,0,0,0-2.673-5.013,8.628,8.628,0,0,1-2.161-2.347A11.1,11.1,0,0,1,.018,9.954a8.643,8.643,0,0,1,2.426-6.5A10.88,10.88,0,0,1,6.064.934,11.41,11.41,0,0,1,10.6,0a11.6,11.6,0,0,1,4.56.942A10.891,10.891,0,0,1,18.8,3.481a8.565,8.565,0,0,1,2.389,6.473c-.322,4.539-1.812,5.726-3.253,6.874a5.967,5.967,0,0,0-2.3,2.919L6.12,22.235Z" transform="translate(0.001 0)" fill="none" stroke="#00339e" stroke-miterlimit="10" stroke-width="2"/>
    <path id="Stroke_118" data-name="Stroke 118" d="M6.245,0A3.207,3.207,0,0,1,2.838,2.963,3.553,3.553,0,0,1,0,1.637" transform="translate(7.767 28.264)" fill="none" stroke="#00339e" stroke-linecap="round" stroke-linejoin="round" stroke-miterlimit="10" stroke-width="2"/>
    <path id="Stroke_119" data-name="Stroke 119" d="M0,.079,1.417,0,.976,1.307" transform="translate(13.088 14.475)" fill="none" stroke="#00339f" stroke-miterlimit="10" stroke-width="2"/>
    <path id="Stroke_120" data-name="Stroke 120" d="M7.272.224A5.284,5.284,0,0,1,0,0" transform="translate(7.232 14.25)" fill="none" stroke="#00339f" stroke-miterlimit="10" stroke-width="2"/>
    <path id="Stroke_121" data-name="Stroke 121" d="M0,0A5.325,5.325,0,0,1,4.345,5.812" transform="translate(11.895 5.321)" fill="none" stroke="#00339f" stroke-miterlimit="10" stroke-width="2"/>
    <path id="Stroke_122" data-name="Stroke 122" d="M.935,1.525,0,.459,1.3,0" transform="translate(11.895 4.862)" fill="none" stroke="#00339f" stroke-miterlimit="10" stroke-width="2"/>
    <path id="Stroke_123" data-name="Stroke 123" d="M.161,6.388A5.346,5.346,0,0,1,3.665,0" transform="translate(5.706 5.493)" fill="none" stroke="#00339f" stroke-miterlimit="10" stroke-width="2"/>
    <path id="Stroke_124" data-name="Stroke 124" d="M1.546,0,.933,1.281,0,.265" transform="translate(4.934 10.601)" fill="none" stroke="#00339f" stroke-miterlimit="10" stroke-width="2"/>
  </g>
</svg>
