<svg xmlns="http://www.w3.org/2000/svg" width="20.979" height="24.357" viewBox="0 0 20.979 24.357">
  <g id="like" transform="translate(-0.44)">
    <path id="Shape" d="M17.482,20.028H11.624a7.539,7.539,0,0,1-2.433-.4l-2.4-.817A2.108,2.108,0,0,1,4.9,20.028H.7a.707.707,0,0,1-.7-.714V6.47a.707.707,0,0,1,.7-.714H4.9A2.089,2.089,0,0,1,6.847,7.113c1.81-.45,3.476-2.955,3.982-5.018L11.21.54A.7.7,0,0,1,11.888,0h.7a2.829,2.829,0,0,1,2.8,2.854v.713a14.16,14.16,0,0,1-.576,3.616h4.072a2.123,2.123,0,0,1,2.1,2.141,2.159,2.159,0,0,1-.536,1.427,2.168,2.168,0,0,1,0,2.854,2.158,2.158,0,0,1-1.01,3.493,2.154,2.154,0,0,1,.147.788A2.123,2.123,0,0,1,17.482,20.028Zm-5.048-18.6-.248,1.015a10.491,10.491,0,0,1-2.053,4.019,5.658,5.658,0,0,1-3.14,2.082v8.829l2.641.9a6.142,6.142,0,0,0,1.991.331h5.858a.714.714,0,0,0,0-1.427.714.714,0,0,1,0-1.428h1.4a.714.714,0,0,0,0-1.427h-1.4a.714.714,0,0,1,0-1.427h1.4a.714.714,0,0,0,0-1.427h-1.4a.714.714,0,0,1,0-1.427h1.4a.714.714,0,0,0,0-1.427H11.888a.714.714,0,0,1,0-1.427h1.429a11.494,11.494,0,0,0,.669-3.616V2.854a1.415,1.415,0,0,0-1.4-1.427ZM1.4,7.183V18.6H4.9a.707.707,0,0,0,.7-.714V7.9a.707.707,0,0,0-.7-.714Z" transform="translate(0.44 4.329)" fill="#0033a0"/>
    <ellipse id="Oval" cx="0.699" cy="0.714" rx="0.699" ry="0.714" transform="translate(3.237 20.075)" fill="#0033a0"/>
    <path id="Path" d="M.7,0A.707.707,0,0,0,0,.714V2.188A.707.707,0,0,0,.7,2.9a.707.707,0,0,0,.7-.714V.714A.707.707,0,0,0,.7,0Z" transform="translate(13.027)" fill="#0033a0"/>
    <path id="Path-2" data-name="Path" d="M2.183,1.218,1.194.209A.689.689,0,0,0,.2.209a.724.724,0,0,0,0,1.009l.989,1.009a.689.689,0,0,0,.989,0A.724.724,0,0,0,2.183,1.218Z" transform="translate(8.577 1.929)" fill="#0033a0"/>
    <path id="Path-3" data-name="Path" d="M2.183.209a.689.689,0,0,0-.989,0L.2,1.218a.724.724,0,0,0,0,1.009.689.689,0,0,0,.989,0l.989-1.009A.724.724,0,0,0,2.183.209Z" transform="translate(16.489 1.929)" fill="#0033a0"/>
  </g>
</svg>
