<svg xmlns="http://www.w3.org/2000/svg" width="57.406" height="57.406" viewBox="0 0 57.406 57.406">
  <g id="Grupo_305" data-name="Grupo 305" transform="translate(0.5 0.5)">
    <circle id="Oval_2" data-name="Oval 2" cx="28.203" cy="28.203" r="28.203" transform="translate(0 0)" fill="none" stroke="#e5e9ff" stroke-miterlimit="10" stroke-width="1"/>
    <path id="Oval_2_Copy_3" data-name="Oval 2 Copy 3" d="M21.551,0A21.551,21.551,0,1,1,0,21.551,21.551,21.551,0,0,1,21.551,0Z" transform="translate(6.945 6.918)" fill="#e5e9ff" opacity="0.439"/>
    <g id="Grupo_178" data-name="Grupo 178" transform="translate(15.217 13.852)">
      <g id="Grupo_47" data-name="Grupo 47" transform="translate(3.72 7.744)">
        <path id="Trazado_222" data-name="Trazado 222" d="M15.29,17.009V14.688m-4.959,0v2.769L5.366,19.226a2.959,2.959,0,0,0-1.974,2.787V24.37H22.271" transform="translate(-3.392 -6.39)" fill="none" stroke="#fff" stroke-linecap="round" stroke-linejoin="round" stroke-miterlimit="10" stroke-width="1.5"/>
        <path id="Trazado_223" data-name="Trazado 223" d="M16.895,7.71a6.888,6.888,0,0,1,.48,2.547c0,3.273-2.219,5.924-4.956,5.924S7.46,13.529,7.46,10.257A6.758,6.758,0,0,1,8.228,7.09" transform="translate(-2.999 -7.09)" fill="none" stroke="#fff" stroke-linejoin="round" stroke-miterlimit="10" stroke-width="1.5"/>
      </g>
      <path id="Trazado_224" data-name="Trazado 224" d="M0,0H26.317V26.212H0Z" fill="none"/>
      <path id="Trazado_225" data-name="Trazado 225" d="M19.24,18.872,14.247,17.1m6.977,4.581a2.982,2.982,0,0,0-1.987-2.8m1.987,2.761V24" transform="translate(1.376 1.576)" fill="none" stroke="#fff" stroke-linecap="round" stroke-linejoin="round" stroke-miterlimit="10" stroke-width="1.5"/>
      <g id="Grupo_49" data-name="Grupo 49" transform="translate(4.599 0.727)">
        <g id="Grupo_48" data-name="Grupo 48">
          <path id="Trazado_226" data-name="Trazado 226" d="M12.714,7.269l7.54-3.145L12.714.666,5.176,3.811Z" transform="translate(-4.099 -0.666)" fill="none" stroke="#fff" stroke-linecap="round" stroke-linejoin="round" stroke-miterlimit="10" stroke-width="1.5"/>
          <path id="Trazado_227" data-name="Trazado 227" d="M8.5,5.123v3.67L12.81,11.2l4.309-2.1V5.429M5.271,3.548v3.67m0,.308L4.194,10.673l2.156-.308L5.271,7.218" transform="translate(-4.194 -0.4)" fill="none" stroke="#fff" stroke-linecap="round" stroke-linejoin="round" stroke-miterlimit="10" stroke-width="1.5"/>
        </g>
      </g>
    </g>
  </g>
</svg>
