<svg xmlns="http://www.w3.org/2000/svg" width="27.703" height="27.024" viewBox="0 0 27.703 27.024">
  <g id="Grupo_507" data-name="Grupo 507" transform="translate(-10395.264 2227.6)">
    <g id="Group_3" data-name="Group 3" transform="translate(10396 -2226.657)">
      <path id="Stroke_57" data-name="Stroke 57" d="M0,.179,3.245,0,2.235,2.99" transform="translate(18.665 22.007)" fill="none" stroke="#00339f" stroke-miterlimit="10" stroke-width="2"/>
      <path id="Stroke_58" data-name="Stroke 58" d="M16.648.513A12.1,12.1,0,0,1,0,0" transform="translate(5.262 21.494)" fill="none" stroke="#00339f" stroke-miterlimit="10" stroke-width="2"/>
      <path id="Stroke_59" data-name="Stroke 59" d="M14.056,7.029a7.028,7.028,0,1,0-7.028,7.027A7.03,7.03,0,0,0,14.056,7.029Z" transform="translate(6.829 5.941)" fill="none" stroke="#00339e" stroke-miterlimit="10" stroke-width="2"/>
      <path id="Stroke_62" data-name="Stroke 62" d="M0,0A12.188,12.188,0,0,1,9.946,13.309" transform="translate(15.935 1.049)" fill="none" stroke="#00339f" stroke-miterlimit="10" stroke-width="2"/>
      <path id="Stroke_63" data-name="Stroke 63" d="M2.14,3.491,0,1.049,2.975,0" transform="translate(15.935 0)" fill="none" stroke="#00339f" stroke-miterlimit="10" stroke-width="2"/>
      <path id="Stroke_64" data-name="Stroke 64" d="M.368,14.626A12.243,12.243,0,0,1,8.39,0" transform="translate(1.766 1.442)" fill="none" stroke="#00339f" stroke-miterlimit="10" stroke-width="2"/>
      <path id="Stroke_65" data-name="Stroke 65" d="M3.538,0l-1.4,2.93L0,.606" transform="translate(0 13.139)" fill="none" stroke="#00339f" stroke-miterlimit="10" stroke-width="2"/>
    </g>
    <g id="Group_2" data-name="Group 2" transform="translate(10405.923 -2217.527)">
      <path id="Stroke_66" data-name="Stroke 66" d="M5.113.264C7,.77,7.463,3.108,7.463,3.731A3.728,3.728,0,1,1,5.113.264" transform="translate(0.183 0.004)" fill="none" stroke="#00339e" stroke-miterlimit="10" stroke-width="1"/>
      <path id="Stroke_67" data-name="Stroke 67" d="M1.207,0S0,.754,0,3.732C0,6.977,1.207,7.463,1.207,7.463" transform="translate(2.302 0)" fill="none" stroke="#00339e" stroke-miterlimit="10" stroke-width="1"/>
      <path id="Stroke_68" data-name="Stroke 68" d="M.64-13.488a6.746,6.746,0,0,1,.567,2.935C1.207-7.308,0-6.822,0-6.822" transform="translate(4.341 14.285)" fill="none" stroke="#00339e" stroke-miterlimit="10" stroke-width="1"/>
      <path id="Stroke_69" data-name="Stroke 69" d="M0,0A2.162,2.162,0,0,1,.661.861" transform="translate(4.341 0)" fill="none" stroke="#00339e" stroke-miterlimit="10" stroke-width="1"/>
      <path id="Stroke_70" data-name="Stroke 70" d="M0,.5H6.1" transform="translate(0.821 1.151)" fill="none" stroke="#00339e" stroke-miterlimit="10" stroke-width="1"/>
      <path id="Stroke_71" data-name="Stroke 71" d="M0,.5H6.223" transform="translate(0.821 5.268)" fill="none" stroke="#00339e" stroke-miterlimit="10" stroke-width="1"/>
      <path id="Stroke_72" data-name="Stroke 72" d="M0,.5H7.646" transform="translate(0 3.236)" fill="none" stroke="#00339e" stroke-miterlimit="10" stroke-width="1"/>
    </g>
  </g>
</svg>
