<svg xmlns="http://www.w3.org/2000/svg" width="57.632" height="57.632" viewBox="0 0 57.632 57.632">
  <g id="Grupo_304" data-name="Grupo 304" transform="translate(0.5 0.5)">
    <circle id="Oval_2" data-name="Oval 2" cx="28.316" cy="28.316" r="28.316" transform="translate(0 0)" fill="none" stroke="#e5e9ff" stroke-miterlimit="10" stroke-width="1"/>
    <path id="Oval_2_Copy_3" data-name="Oval 2 Copy 3" d="M21.638,0A21.638,21.638,0,1,1,0,21.638,21.638,21.638,0,0,1,21.638,0Z" transform="translate(6.945 6.945)" fill="#e5e9ff" opacity="0.439"/>
    <g id="Grupo_176" data-name="Grupo 176" transform="translate(12.008 14.24)">
      <path id="Trazado_220" data-name="Trazado 220" d="M26.06,16.756a2.912,2.912,0,0,0-2.566,1.567,2.912,2.912,0,0,0-2.566-1.567,3.2,3.2,0,0,0-3.085,3.381c0,2.949,4.775,6.5,5.33,6.9a.555.555,0,0,0,.666,0c.543-.395,5.318-3.948,5.318-6.9a3.208,3.208,0,0,0-3.1-3.381Zm-2.566,9.155c-2.233-1.69-4.528-4.133-4.528-5.737a2.085,2.085,0,0,1,1.949-2.246c.962,0,1.32.543,2,1.653l.062.16a.592.592,0,0,0,.962,0l.086-.136c.679-1.123,1.049-1.653,2-1.653A2.085,2.085,0,0,1,27.973,20.2c.037,1.542-2.246,3.985-4.479,5.713ZM19.533,7.4c0-4.059-2.789-7.4-6.169-7.4S7.195,3.294,7.195,7.4a7.761,7.761,0,0,0,2.826,6.169V16.04L4.628,17.891A3.961,3.961,0,0,0,2,21.592v2.7a.568.568,0,0,0,.568.568H16.14a.568.568,0,0,0,0-1.135h-13v-2.11a2.838,2.838,0,0,1,1.875-2.665l5.626-2.024a.568.568,0,0,0,.37-.531V14.189a5.269,5.269,0,0,0,4.528,0V16.4a.568.568,0,1,0,1.135,0V13.511A7.761,7.761,0,0,0,19.533,7.4ZM13.364,1.234c2.468,0,4.565,2.2,5,5.1-1.641.321-2.665-.222-3.628-1.912a.568.568,0,0,0-.987,0A4.664,4.664,0,0,1,9.921,6.169a3.973,3.973,0,0,1-1.555-.247c.518-2.739,2.542-4.787,4.948-4.787ZM8.169,7.4V7.082A5.182,5.182,0,0,0,9.921,7.4a6.169,6.169,0,0,0,4.22-1.752A3.9,3.9,0,0,0,17.46,7.4a5.5,5.5,0,0,0,.938,0c0,3.43-2.283,6.169-5.083,6.169S8.169,10.784,8.169,7.4Z" transform="translate(2.475 0)" fill="#fff"/>
      <path id="Trazado_221" data-name="Trazado 221" d="M0,0H36.113V36.113H0Z" transform="translate(0 2.438)" fill="none"/>
    </g>
  </g>
</svg>
