<svg xmlns="http://www.w3.org/2000/svg" width="57.632" height="57.632" viewBox="0 0 57.632 57.632">
  <g id="Grupo_306" data-name="Grupo 306" transform="translate(0.5 0.5)">
    <circle id="Oval_2" data-name="Oval 2" cx="28.316" cy="28.316" r="28.316" transform="translate(0 0)" fill="none" stroke="#e5e9ff" stroke-miterlimit="10" stroke-width="1"/>
    <path id="Oval_2_Copy_3" data-name="Oval 2 Copy 3" d="M21.638,0A21.638,21.638,0,1,1,0,21.638,21.638,21.638,0,0,1,21.638,0Z" transform="translate(6.945 6.945)" fill="#e5e9ff" opacity="0.439"/>
    <g id="worker" transform="translate(13.817 12.505)">
      <path id="Trazado_252" data-name="Trazado 252" d="M30.641,20.986c-.007-1.433-.789-1.824-1.444-1.9l-.045,0a3.867,3.867,0,0,1-2.235-.64,3.855,3.855,0,0,0-2.237-.659,3.9,3.9,0,0,0-1.314.2c-.6-1.315-1.793-1.657-2.952-1.987-.17-.048-.346-.1-.52-.151l-2.946-.9a7.7,7.7,0,0,0,2.275-3.487,2.241,2.241,0,0,0,1.1-.608,1.946,1.946,0,0,0,.62-1.346V8.919a1.07,1.07,0,0,0-.818-1.038,1.156,1.156,0,0,0,.027-.244V6.994a1.152,1.152,0,0,0-.772-1.086A6.49,6.49,0,0,0,15.555.957,1.472,1.472,0,0,0,14.179,0H11.752a1.473,1.473,0,0,0-1.375.948A6.526,6.526,0,0,0,6.53,5.925,1.152,1.152,0,0,0,5.8,6.994v.644a1.149,1.149,0,0,0,.034.274A1.069,1.069,0,0,0,5.12,8.919v.592a1.945,1.945,0,0,0,.619,1.346,2.26,2.26,0,0,0,1.059.6,7.693,7.693,0,0,0,2.278,3.5l-3.246.985h0c-.176.054-.346.1-.512.149-1.217.347-2.268.647-2.8,2.277l0,.008L.3,25.67c-.276.91-.443,1.46-.149,1.853.231.309.59.343,1.114.343H19.414a9.214,9.214,0,0,0,4.145,3.588l.008,0a2.619,2.619,0,0,0,1.1.305h0A2.659,2.659,0,0,0,25.8,31.45c2.5-1.191,4.209-3,4.7-4.96a4.806,4.806,0,0,0,.142-1.072V25.41ZM19.409,10.2l.016-1.414h.451a.131.131,0,0,1,.131.131v.592a1.031,1.031,0,0,1-.341.68,1.476,1.476,0,0,1-.262.206C19.406,10.332,19.409,10.267,19.409,10.2ZM5.5,26.924H1.8l-.316,0c-.195,0-.408,0-.54-.007a8.785,8.785,0,0,1,.258-.977l2.211-7.291c.366-1.126.982-1.324,2.086-1.639ZM20.49,17c.951.279,1.659.557,2.032,1.4l-.079.047a3.769,3.769,0,0,1-1.952.629ZM11.218,1.471a.534.534,0,0,1,.534-.533h2.427a.533.533,0,0,1,.532.533V3.2a.532.532,0,0,1-.532.532H11.752a.533.533,0,0,1-.534-.532Zm-.938.567V3.2a1.472,1.472,0,0,0,1.472,1.469h2.427A1.471,1.471,0,0,0,15.648,3.2V2.047a5.552,5.552,0,0,1,2.769,3.8H7.5A5.549,5.549,0,0,1,10.28,2.038ZM6.4,10.191a1.03,1.03,0,0,1-.341-.679V8.919a.131.131,0,0,1,.131-.131H6.6L6.613,10.2c0,.057,0,.114,0,.171A1.485,1.485,0,0,1,6.4,10.191Zm1.256.838v0a.467.467,0,0,0-.039-.182,3.527,3.527,0,0,1-.065-.652l-.015-1.4,4.282,0h0a.469.469,0,0,0,0-.937l-4.754,0H6.952a.216.216,0,0,1-.212-.213V6.994a.216.216,0,0,1,.212-.213H19a.216.216,0,0,1,.213.213v.644A.216.216,0,0,1,19,7.851H13.968a.469.469,0,0,0,0,.938h4.519L18.471,10.2c0,2-1.934,4.472-4.138,5.293a3.337,3.337,0,0,1-2.635,0A6.923,6.923,0,0,1,7.654,11.029ZM16.842,15.9c-.483,1.054-2.079,1.832-3.886,1.832s-3.379-.751-3.873-1.8l.9-.273a6.792,6.792,0,0,0,1.388.715,4.645,4.645,0,0,0,1.639.328,4.655,4.655,0,0,0,1.649-.332,6.776,6.776,0,0,0,1.379-.711Zm.1,11.023H8.96V25.561l7.98,0Zm0-2.3-7.98,0v-.636a.076.076,0,0,1,.073-.074h7.834a.075.075,0,0,1,.073.074Zm2.614-5.364a1.742,1.742,0,0,0-.834,1.729l0,.725v3.7a4.712,4.712,0,0,0,.144,1.073c.036.145.08.29.13.433H17.877V23.988a1.013,1.013,0,0,0-1.011-1.012H9.033a1.012,1.012,0,0,0-1.01,1.012v2.936H6.436V16.734l1.586-.481v4.416a1.011,1.011,0,0,0,1.01,1.01l2.805,0h0a.469.469,0,0,0,0-.937l-2.806,0a.076.076,0,0,1-.073-.073V17.3a5.908,5.908,0,0,0,4,1.372,5.941,5.941,0,0,0,4-1.394v3.391a.076.076,0,0,1-.075.073h-2.9a.469.469,0,0,0,0,.937h2.9a1.012,1.012,0,0,0,1.012-1.01V16.222l1.655.5ZM29.7,25.406a3.855,3.855,0,0,1-.114.857c-.422,1.688-1.95,3.27-4.189,4.338a1.853,1.853,0,0,1-.736.22h0a1.783,1.783,0,0,1-.707-.22c-2.241-1.07-3.768-2.651-4.19-4.34a3.771,3.771,0,0,1-.116-.856V21.721l0-.728c0-.649.161-.915.593-.971a4.752,4.752,0,0,0,2.669-.77,3.2,3.2,0,0,1,3.521,0,4.756,4.756,0,0,0,2.67.77c.429.056.59.322.593.969l0,.729Zm0,0" transform="translate(0)" fill="#fff"/>
      <path id="Trazado_253" data-name="Trazado 253" d="M367.105,369.207a.468.468,0,0,0-.66.066l-2.012,2.46-.729-.576a.469.469,0,1,0-.581.736l1.09.861a.469.469,0,0,0,.653-.071l2.3-2.816A.469.469,0,0,0,367.105,369.207Zm0,0" transform="translate(-340.432 -346.206)" fill="#fff"/>
      <path id="Trazado_254" data-name="Trazado 254" d="M336.2,319.649l-.045,0a2.541,2.541,0,0,1-1.483-.426,3.011,3.011,0,0,0-3.255,0,2.54,2.54,0,0,1-1.484.426l-.045,0c-.422.049-1.129.3-1.129,1.468l0,.5v2.572a3.405,3.405,0,0,0,.1.78,5.8,5.8,0,0,0,3.343,3.541l.009,0a1.94,1.94,0,0,0,.823.225,1.977,1.977,0,0,0,.851-.229,5.8,5.8,0,0,0,3.344-3.543,3.515,3.515,0,0,0,.1-.777V321.62l0-.5C337.328,319.953,336.62,319.7,336.2,319.649Zm.2,4.533a2.571,2.571,0,0,1-.076.564,4.891,4.891,0,0,1-2.833,2.92,1.181,1.181,0,0,1-.451.14,1.146,1.146,0,0,1-.432-.14,4.893,4.893,0,0,1-2.833-2.921,2.469,2.469,0,0,1-.076-.563v-2.559l0-.506c0-.448.114-.511.279-.534a3.471,3.471,0,0,0,1.918-.555,2.079,2.079,0,0,1,2.3,0,3.471,3.471,0,0,0,1.917.555c.165.022.281.086.281.537l0,.5Zm0,0" transform="translate(-308.362 -298.971)" fill="#fff"/>
    </g>
  </g>
</svg>
