<svg xmlns="http://www.w3.org/2000/svg" xmlns:xlink="http://www.w3.org/1999/xlink" width="57.406" height="57.406" viewBox="0 0 57.406 57.406">
  <defs>
    <clipPath id="clip-path">
      <rect id="Rectángulo_190" data-name="Rectángulo 190" width="31" height="26" transform="translate(0 -0.47)" fill="#fff"/>
    </clipPath>
  </defs>
  <g id="Grupo_307" data-name="Grupo 307" transform="translate(0.5 0.5)">
    <circle id="Oval_2" data-name="Oval 2" cx="28.203" cy="28.203" r="28.203" transform="translate(0 0)" fill="none" stroke="#e5e9ff" stroke-miterlimit="10" stroke-width="1"/>
    <path id="Oval_2_Copy_3" data-name="Oval 2 Copy 3" d="M21.551,0A21.551,21.551,0,1,1,0,21.551,21.551,21.551,0,0,1,21.551,0Z" transform="translate(6.945 6.918)" fill="#e5e9ff" opacity="0.439"/>
    <g id="Enmascarar_grupo_2" data-name="Enmascarar grupo 2" transform="translate(14.132 15.348)" clip-path="url(#clip-path)">
      <g id="training" transform="translate(1.845 0.27)">
        <path id="Trazado_269" data-name="Trazado 269" d="M34.962,25.9a.441.441,0,0,1-.186-.041l-7.422-3.479a.434.434,0,0,1,0-.787l7.422-3.479a.438.438,0,0,1,.372,0l7.422,3.479a.434.434,0,0,1,0,.787l-7.422,3.479A.441.441,0,0,1,34.962,25.9Zm-6.4-3.914,6.4,3,6.4-3-6.4-3Z" transform="translate(-21.864 -14.59)" fill="#fff"/>
        <path id="Trazado_270" data-name="Trazado 270" d="M44.072,48.257a.439.439,0,0,1-.2-.046L38.638,45.6a.435.435,0,0,1-.241-.389V41.888a.434.434,0,0,1,.2-.367.439.439,0,0,1,.42-.027l5.053,2.369,5.053-2.369a.437.437,0,0,1,.623.394v3.325a.435.435,0,0,1-.241.389l-5.239,2.609A.439.439,0,0,1,44.072,48.257Zm-4.8-3.313,4.8,2.392,4.8-2.392V42.573l-4.616,2.164a.438.438,0,0,1-.372,0L39.27,42.573Z" transform="translate(-30.975 -33.472)" fill="#fff"/>
        <path id="Trazado_271" data-name="Trazado 271" d="M73.358,37.008H65.937a.435.435,0,1,1,0-.87h7.422a.435.435,0,1,1,0,.87Z" transform="translate(-52.839 -29.181)" fill="#fff"/>
        <path id="Trazado_272" data-name="Trazado 272" d="M104.333,40.921a.436.436,0,0,1-.437-.435V36.573a.437.437,0,0,1,.873,0v3.914A.436.436,0,0,1,104.333,40.921Z" transform="translate(-83.814 -29.181)" fill="#fff"/>
        <path id="Trazado_273" data-name="Trazado 273" d="M65.937,34.23a.436.436,0,0,1-.437-.435V32.056a.437.437,0,0,1,.873,0v1.739A.436.436,0,0,1,65.937,34.23Z" transform="translate(-52.839 -25.533)" fill="#fff"/>
        <path id="Trazado_274" data-name="Trazado 274" d="M99.816,58.638a.435.435,0,0,1-.363-.676l.873-1.3a.436.436,0,0,1,.726.483l-.873,1.3A.437.437,0,0,1,99.816,58.638Z" transform="translate(-80.17 -45.593)" fill="#fff"/>
        <path id="Trazado_275" data-name="Trazado 275" d="M105.207,58.638a.437.437,0,0,1-.364-.194l-.873-1.3a.436.436,0,0,1,.726-.483l.873,1.3a.435.435,0,0,1-.363.676Z" transform="translate(-83.814 -45.593)" fill="#fff"/>
        <path id="Trazado_276" data-name="Trazado 276" d="M65.937,56.381a.436.436,0,0,1-.437-.435v-1.3a.437.437,0,0,1,.873,0v1.3A.436.436,0,0,1,65.937,56.381Z" transform="translate(-52.839 -43.771)" fill="#fff"/>
        <path id="Trazado_277" data-name="Trazado 277" d="M25.758,16.524H.437A.436.436,0,0,1,0,16.089V1.74A1.745,1.745,0,0,1,1.747,0h22.7a1.745,1.745,0,0,1,1.747,1.74V16.089A.436.436,0,0,1,25.758,16.524ZM.873,15.654H25.322V1.74a.872.872,0,0,0-.874-.87H1.747a.872.872,0,0,0-.874.87Z" transform="translate(0 0)" fill="#fff"/>
        <path id="Trazado_278" data-name="Trazado 278" d="M24.448,85.659H1.747A1.745,1.745,0,0,1,0,83.919V81.745a.436.436,0,0,1,.437-.435H25.758a.436.436,0,0,1,.437.435v2.174A1.745,1.745,0,0,1,24.448,85.659ZM.873,82.18v1.739a.872.872,0,0,0,.874.87h22.7a.872.872,0,0,0,.874-.87V82.18Z" transform="translate(0 -65.656)" fill="#fff"/>
        <path id="Trazado_279" data-name="Trazado 279" d="M61.78,91.214H59.161a.435.435,0,1,1,0-.87H61.78a.435.435,0,1,1,0,.87Z" transform="translate(-47.373 -72.951)" fill="#fff"/>
        <path id="Trazado_280" data-name="Trazado 280" d="M31.3,23.819H9.471a.436.436,0,0,1-.437-.435V9.469a.436.436,0,0,1,.437-.435H31.3a.436.436,0,0,1,.437.435V23.384A.436.436,0,0,1,31.3,23.819Zm-21.392-.87H30.863V9.9H9.908Z" transform="translate(-7.288 -7.295)" fill="#fff"/>
        <path id="Trazado_281" data-name="Trazado 281" d="M44.282,120.057H32.93a1.3,1.3,0,1,1,0-2.609H44.282a1.3,1.3,0,1,1,0,2.609ZM32.93,118.318a.435.435,0,1,0,0,.87H44.282a.435.435,0,1,0,0-.87Z" transform="translate(-25.509 -94.837)" fill="#fff"/>
        <path id="Trazado_282" data-name="Trazado 282" d="M50.7,103.728h-9.6a.435.435,0,1,1,0-.87c1.449,0,2.183-1.024,2.183-3.044a.436.436,0,0,1,.437-.435h4.366a.436.436,0,0,1,.437.435c0,2.02.734,3.044,2.183,3.044a.435.435,0,1,1,0,.87Zm-7.478-.87H48.57a4.151,4.151,0,0,1-.918-2.609H44.136A4.153,4.153,0,0,1,43.218,102.858Z" transform="translate(-32.797 -80.246)" fill="#fff"/>
      </g>
    </g>
  </g>
</svg>
