<svg xmlns="http://www.w3.org/2000/svg" width="178.289" height="60.993" viewBox="0 0 178.289 60.993">
  <g id="Grupo_34" data-name="Grupo 34" transform="translate(0 0)">
    <path id="Trazado_199" data-name="Trazado 199" d="M183.515,64.64h-8.731a9.6,9.6,0,0,1-7.113-3.011,9.9,9.9,0,0,1-2.952-7.182,10.065,10.065,0,0,1,2.952-7.231,9.537,9.537,0,0,1,7.113-3.057h8.627a22.739,22.739,0,0,1,4.722-6.385,23.686,23.686,0,0,1,4.733-3.464c0-.023,0-.043,0-.066H174.778a20.286,20.286,0,0,0-20.278,20.2,19.262,19.262,0,0,0,5.957,14.229,19.647,19.647,0,0,0,14.321,5.882h18.094a22.917,22.917,0,0,1-9.358-9.917" transform="translate(-154.5 -34.231)" fill="#002f6c"/>
    <path id="Trazado_200" data-name="Trazado 200" d="M281.571,35.606a19.75,19.75,0,0,0-7.676-1.379,17.967,17.967,0,0,0-7.552,1.61,19.418,19.418,0,0,0-6.146,4.4,21.231,21.231,0,0,0-4.125,6.452,19.838,19.838,0,0,0-1.525,7.7V74.637h10.109V54.405a10.876,10.876,0,0,1,2.568-7.055,8.539,8.539,0,0,1,6.67-3.023c.107,0,.211.009.317.013a23.715,23.715,0,0,1,4.589-6.407,22.874,22.874,0,0,1,2.77-2.327" transform="translate(-180.38 -34.227)" fill="#002f6c"/>
    <path id="Trazado_201" data-name="Trazado 201" d="M235.465,54.065a18.723,18.723,0,0,0-1.646-7.822,19.853,19.853,0,0,0-4.461-6.29,21.035,21.035,0,0,0-6.549-4.193,21.012,21.012,0,0,0-15.752,0,21.017,21.017,0,0,0-6.547,4.193,19.817,19.817,0,0,0-4.461,6.29,18.69,18.69,0,0,0-1.649,7.822,20.419,20.419,0,0,0,20.5,20.572h6.96V64.293h-6.96a10.641,10.641,0,0,1-3.934-.722,9.479,9.479,0,0,1-3.208-2.054,10.242,10.242,0,0,1-3.051-7.452,8.561,8.561,0,0,1,.844-3.822,10.3,10.3,0,0,1,2.206-3.019,9.356,9.356,0,0,1,3.208-1.974,11.6,11.6,0,0,1,7.864,0,9.827,9.827,0,0,1,3.249,1.974,10.02,10.02,0,0,1,2.248,3.019,8.672,8.672,0,0,1,.844,3.822v9.616h.016V74.637h10.284Z" transform="translate(-164.821 -34.227)" fill="#002f6c"/>
    <path id="Trazado_202" data-name="Trazado 202" d="M321.275,46.648a20.792,20.792,0,0,0-4.455-6.575,20.04,20.04,0,0,0-6.554-4.314,21,21,0,0,0-15.748,0,20.027,20.027,0,0,0-6.553,4.314,20.771,20.771,0,0,0-4.46,6.574,20.453,20.453,0,0,0-1.644,8.227,18.539,18.539,0,0,0,1.644,7.741,19.835,19.835,0,0,0,4.46,6.294,21.035,21.035,0,0,0,6.546,4.195,20.44,20.44,0,0,0,7.829,1.533h6.833V64.39h-6.839a10.3,10.3,0,0,1-3.9-.728,10.89,10.89,0,0,1-3.214-1.972,8.905,8.905,0,0,1-3.013-6.807,10.934,10.934,0,0,1,.8-4.316,9.433,9.433,0,0,1,2.211-3.22,10.175,10.175,0,0,1,3.214-2.057,10.357,10.357,0,0,1,3.9-.727,11.007,11.007,0,0,1,3.978.727,9.96,9.96,0,0,1,3.294,2.057,9.432,9.432,0,0,1,2.21,3.22,10.92,10.92,0,0,1,.805,4.316v19.9h0a9.764,9.764,0,0,1-.8,3.807,10.431,10.431,0,0,1-2.21,3.263,10.215,10.215,0,0,1-3.29,2.219,9.917,9.917,0,0,1-3.977.81,8.968,8.968,0,0,1-3.814-.97,12.487,12.487,0,0,1-3.253-2.095L288.2,88.836a23.453,23.453,0,0,0,6.547,4.726,17.537,17.537,0,0,0,7.593,1.658,19.349,19.349,0,0,0,7.917-1.656,21.4,21.4,0,0,0,11.019-11.05,19.376,19.376,0,0,0,1.647-7.867V54.88a20.431,20.431,0,0,0-1.647-8.231" transform="translate(-187.445 -34.227)" fill="#002f6c"/>
    <path id="Trazado_203" data-name="Trazado 203" d="M379.026,46.243a19.9,19.9,0,0,0-4.464-6.29,21.03,21.03,0,0,0-6.546-4.193,21.016,21.016,0,0,0-15.754,0,21.01,21.01,0,0,0-6.545,4.193,19.794,19.794,0,0,0-4.461,6.29,18.678,18.678,0,0,0-1.645,7.822A20.413,20.413,0,0,0,360.1,74.637h6.944V64.293H360.1a10.639,10.639,0,0,1-3.933-.722,9.5,9.5,0,0,1-3.21-2.054,10.241,10.241,0,0,1-3.049-7.452,8.561,8.561,0,0,1,.844-3.822,10.312,10.312,0,0,1,2.205-3.019,9.378,9.378,0,0,1,3.21-1.974,11.6,11.6,0,0,1,7.863,0,9.89,9.89,0,0,1,3.251,1.974,10.03,10.03,0,0,1,2.247,3.019,8.661,8.661,0,0,1,.842,3.822V74.637h10.3V54.065a18.725,18.725,0,0,0-1.647-7.822" transform="translate(-202.383 -34.227)" fill="#002f6c"/>
  </g>
</svg>
