<svg xmlns="http://www.w3.org/2000/svg" xmlns:xlink="http://www.w3.org/1999/xlink" width="193.356" height="193.357" viewBox="0 0 193.356 193.357">
  <defs>
    <filter id="Oval" x="0" y="0" width="193.356" height="193.357" filterUnits="userSpaceOnUse">
      <feOffset dy="2" input="SourceAlpha"/>
      <feGaussianBlur stdDeviation="15" result="blur"/>
      <feFlood flood-color="#e0e5f0"/>
      <feComposite operator="in" in2="blur"/>
      <feComposite in="SourceGraphic"/>
    </filter>
  </defs>
  <g id="Grupo_516" data-name="Grupo 516" transform="translate(-230.392 29.592)">
    <g id="Group_2" data-name="Group 2" transform="translate(275.392 13.408)">
      <g transform="matrix(1, 0, 0, 1, -45, -43)" filter="url(#Oval)">
        <path id="Oval-2" data-name="Oval" d="M51.678,0A51.678,51.678,0,1,1,0,51.678,51.678,51.678,0,0,1,51.678,0Z" transform="translate(45 43)" fill="#fff"/>
      </g>
      <g id="icon" transform="translate(22.206 16.806)">
        <path id="Path_Copy_9" data-name="Path Copy 9" d="M0,22.354,4.738,0,17,3.034l-4.2,19.188Z" transform="translate(0 28.27)" fill="#00339f" opacity="0.1"/>
        <path id="Fill_11" data-name="Fill 11" d="M0,22.354H0L4.738,0,17,3.034l-4.2,19.189L0,22.354ZM6.539,2.875,2.917,19.966l7.987-.083L14.21,4.772Z" transform="translate(5.029 25.396)" fill="#00339f"/>
        <path id="Fill_13" data-name="Fill 13" d="M15.324,23.011,0,16.286l.948-2.159,14.474,6.352L37.944,12.6l-.36-2.088a.939.939,0,0,0-.451-.629,4.828,4.828,0,0,0-3.012-.08L18.7,13.689l-8.109-5.3,7.948-2.446a2.086,2.086,0,0,0,1.48-2.563L20,3.3l-.133-.755L3.152,4.054,2.94,1.705,21.812,0l.5,2.848A4.447,4.447,0,0,1,19.307,8.17l-.05.016-3.172.976,3.039,1.987,14.4-3.626c.276-.076,2.968-.77,4.82.334a3.306,3.306,0,0,1,1.547,2.151l.013.065.705,4.092Z" transform="translate(17.054 29.099)" fill="#00339f"/>
        <g id="icon-2" data-name="icon" transform="translate(37.446 6.421)">
          <path id="Fill_5_Copy" data-name="Fill 5 Copy" d="M.13,2.362a.609.609,0,0,1,.121-.869A53.575,53.575,0,0,1,5.994,0a.629.629,0,0,1,.638.62A3.355,3.355,0,0,1,3.073,3.714,3.73,3.73,0,0,1,.13,2.362Z" transform="translate(8.089 24.701)" fill="#00339f" opacity="0.1"/>
          <path id="Fill_1_Copy_2" data-name="Fill 1 Copy 2" d="M5.015,18.786a4.024,4.024,0,0,0-1.948-3.561c-1.3-1-2.774-2.124-3.05-6.29A7.745,7.745,0,0,1,2.225,3.068,10.1,10.1,0,0,1,9.548,0,10.108,10.108,0,0,1,16.9,3.091,7.683,7.683,0,0,1,19.08,8.939c-.291,4.045-1.716,5.167-2.973,6.157a4.411,4.411,0,0,0-1.733,2.146.627.627,0,0,1-.8.381.616.616,0,0,1-.385-.787S6.024,19.341,5.68,19.363A.632.632,0,0,1,5.015,18.786Z" transform="translate(0.729 2.55)" fill="#00339f" opacity="0.1"/>
          <path id="Fill_1" data-name="Fill 1" d="M5.638,19.364a.623.623,0,0,1-.624-.578,4.024,4.024,0,0,0-1.948-3.561c-1.3-1-2.774-2.124-3.05-6.29A7.745,7.745,0,0,1,2.225,3.068,10.1,10.1,0,0,1,9.548,0,10.108,10.108,0,0,1,16.9,3.091,7.683,7.683,0,0,1,19.08,8.939c-.291,4.045-1.716,5.167-2.973,6.157a4.411,4.411,0,0,0-1.733,2.146.627.627,0,0,1-.8.381.616.616,0,0,1-.385-.787,5.548,5.548,0,0,1,2.136-2.707c1.158-.912,2.253-1.773,2.5-5.278a6.469,6.469,0,0,0-1.845-4.918A9.024,9.024,0,0,0,3.139,3.912,6.531,6.531,0,0,0,1.265,8.855c.24,3.611,1.371,4.477,2.568,5.394a5.187,5.187,0,0,1,2.43,4.458.621.621,0,0,1-.583.657H5.638" transform="translate(0)" fill="#00339f"/>
          <path id="Fill_3" data-name="Fill 3" d="M.626,9.284a.624.624,0,0,1-.6-.461.606.606,0,0,1,.063-.465A.62.62,0,0,1,.467,8.07L8.5,5.991a.637.637,0,0,1,.159-.02.625.625,0,0,1,.605.461A.606.606,0,0,1,9.2,6.9a.62.62,0,0,1-.383.289L.785,9.264A.65.65,0,0,1,.626,9.284Zm0-2.986a.624.624,0,0,1-.6-.461.607.607,0,0,1,.063-.465.62.62,0,0,1,.383-.289L8.5,3.006a.638.638,0,0,1,.159-.02.625.625,0,0,1,.606.461A.605.605,0,0,1,9.2,3.91a.621.621,0,0,1-.384.289L.785,6.278A.635.635,0,0,1,.626,6.3Zm0-2.985a.624.624,0,0,1-.6-.461.606.606,0,0,1,.063-.465A.62.62,0,0,1,.467,2.1L8.5.02A.638.638,0,0,1,8.658,0a.625.625,0,0,1,.605.461A.606.606,0,0,1,9.2.925a.622.622,0,0,1-.384.289L.785,3.292A.635.635,0,0,1,.626,3.313Z" transform="translate(5.04 16.446)" fill="#00339f"/>
          <path id="Fill_5" data-name="Fill 5" d="M3.073,3.714A3.73,3.73,0,0,1,.13,2.362a.609.609,0,0,1,.121-.869.649.649,0,0,1,.894.118,2.438,2.438,0,0,0,1.928.863A2.1,2.1,0,0,0,5.356.62a.638.638,0,0,1,1.275,0A3.355,3.355,0,0,1,3.073,3.714" transform="translate(6.632 23.609)" fill="#00339f"/>
          <path id="Fill_7" data-name="Fill 7" d="M3.513,9.019a.616.616,0,0,1-.5-.257L.118,4.736a.628.628,0,0,1,.137-.872A.614.614,0,0,1,1.118,4l2.331,3.24L7.332.317A.615.615,0,0,1,8.175.081a.628.628,0,0,1,.233.851L4.051,8.7a.618.618,0,0,1-.5.316H3.513" transform="translate(5.571 6.101)" fill="#00339f"/>
        </g>
      </g>
    </g>
    <g id="Grupo_511" data-name="Grupo 511" transform="translate(-161.728 -1925.906)" opacity="0.996">
      <circle id="Elipse_71" data-name="Elipse 71" cx="23.5" cy="23.5" r="23.5" transform="translate(416 1938.862)" fill="#004372"/>
      <text id="_2" data-name="2" transform="translate(439 1972.862)" fill="#fff" font-size="30" font-family="Arial-BoldMT, Arial" font-weight="700"><tspan x="-8.342" y="0">2</tspan></text>
    </g>
  </g>
</svg>
