<svg xmlns="http://www.w3.org/2000/svg" xmlns:xlink="http://www.w3.org/1999/xlink" width="193.356" height="193.357" viewBox="0 0 193.356 193.357">
  <defs>
    <filter id="Oval" x="0" y="0" width="193.356" height="193.357" filterUnits="userSpaceOnUse">
      <feOffset dy="2" input="SourceAlpha"/>
      <feGaussianBlur stdDeviation="15" result="blur"/>
      <feFlood flood-color="#e0e5f0"/>
      <feComposite operator="in" in2="blur"/>
      <feComposite in="SourceGraphic"/>
    </filter>
  </defs>
  <g id="Grupo_517" data-name="Grupo 517" transform="translate(-977.119 -1845.452)">
    <g id="Group_2" data-name="Group 2" transform="translate(1022.119 1888.452)">
      <g transform="matrix(1, 0, 0, 1, -45, -43)" filter="url(#Oval)">
        <path id="Oval-2" data-name="Oval" d="M51.678,0A51.678,51.678,0,1,1,0,51.678,51.678,51.678,0,0,1,51.678,0Z" transform="translate(45 43)" fill="#fff"/>
      </g>
      <g id="idea" transform="translate(22.881 18.109)">
        <g id="Grupo_514" data-name="Grupo 514" transform="translate(0 -0.733)">
          <g id="Grupo_513" data-name="Grupo 513">
            <rect id="Rectángulo_408" data-name="Rectángulo 408" width="2" height="5" transform="translate(28 0.172)" fill="#0030a5"/>
            <rect id="Rectángulo_409" data-name="Rectángulo 409" width="4.59" height="1.836" transform="matrix(0.707, 0.707, -0.707, 0.707, 18.075, 4.634)" fill="#0030a5"/>
            <rect id="Rectángulo_410" data-name="Rectángulo 410" width="4" height="1" transform="translate(13 16.172)" fill="#0030a5"/>
            <rect id="Rectángulo_411" data-name="Rectángulo 411" width="4.59" height="1.836" transform="matrix(0.707, -0.707, 0.707, 0.707, 16.776, 26.704)" fill="#0030a5"/>
            <rect id="Rectángulo_412" data-name="Rectángulo 412" width="4.59" height="1.836" transform="matrix(-0.707, -0.707, 0.707, -0.707, 38.846, 28.003)" fill="#0030a5"/>
            <rect id="Rectángulo_413" data-name="Rectángulo 413" width="6" height="1" transform="translate(39 16.172)" fill="#0030a5"/>
            <rect id="Rectángulo_414" data-name="Rectángulo 414" width="1.836" height="4.59" transform="translate(38.845 4.637) rotate(45)" fill="#0030a5"/>
            <path id="Trazado_417" data-name="Trazado 417" d="M171.672,72.524v1.837h-1.836V76.2h1.836v3.672h11.016V76.2h1.836V74.361h-1.836V72.524a9.18,9.18,0,1,0-11.016,0Zm9.18,5.509h-7.344V76.2h7.344Zm-4.59-12.852a.918.918,0,1,1,.918.918A.919.919,0,0,1,176.262,65.18Zm.918-7.344a7.343,7.343,0,0,1,4.079,13.45l-.407.274v2.8H178.1v-6.6a2.754,2.754,0,1,0-1.836,0v6.6h-2.754v-2.8l-.407-.273a7.344,7.344,0,0,1,4.079-13.451Z" transform="translate(-148.721 -48.862)" fill="#0030a5"/>
            <path id="Trazado_418" data-name="Trazado 418" d="M280.787,248.918a2.762,2.762,0,0,0-2.2,1.1l-4.747,6.33-7.209,1.441,1.9-4.286a3.7,3.7,0,0,0,.319-1.507v-.286a3.71,3.71,0,0,0-7.088-1.536l-3.928,8.642v10.3H256v7.344h13.771v-7.344h-1.836v-2.187l8.881-4.441,6.228-8.9a2.748,2.748,0,0,0,.5-1.581v-.339A2.758,2.758,0,0,0,280.787,248.918Zm-12.852,25.705h-10.1v-3.672h10.1ZM281.7,252.011a.909.909,0,0,1-.166.527l-5.961,8.515-9.48,4.741v3.321h-6.426v-9.9l3.764-8.281a1.874,1.874,0,0,1,3.58.776V252a1.855,1.855,0,0,1-.162.761l-3.432,7.721,1.678.745.613-1.38,9.169-1.834,5.169-6.891a.919.919,0,0,1,1.652.553Z" transform="translate(-226.623 -218.829)" fill="#0030a5"/>
            <path id="Trazado_419" data-name="Trazado 419" d="M25.7,258.817l-3.928-8.642a3.71,3.71,0,0,0-7.088,1.536V252a3.688,3.688,0,0,0,.319,1.507l1.9,4.286L9.7,256.35l-4.747-6.33A2.753,2.753,0,0,0,0,251.672v.339a2.743,2.743,0,0,0,.5,1.58l6.228,8.9,8.881,4.441v2.187H13.771v7.344H27.541v-7.344H25.7ZM7.963,261.054,2,252.538a.909.909,0,0,1-.166-.527v-.339a.918.918,0,0,1,1.652-.552l5.169,6.891,9.169,1.834.613,1.38,1.678-.745-3.432-7.721a1.856,1.856,0,0,1-.162-.762v-.286a1.874,1.874,0,0,1,3.58-.776l3.764,8.281v9.9H17.443v-3.321ZM25.7,274.623h-10.1v-3.672H25.7Z" transform="translate(0 -218.829)" fill="#0030a5"/>
          </g>
        </g>
      </g>
    </g>
    <g id="Grupo_512" data-name="Grupo 512" transform="translate(584 -54.862)" opacity="0.996">
      <circle id="Elipse_71" data-name="Elipse 71" cx="23.5" cy="23.5" r="23.5" transform="translate(416 1938.862)" fill="#137ec9"/>
      <text id="_3" data-name="3" transform="translate(439 1972.862)" fill="#fff" font-size="30" font-family="Arial-BoldMT, Arial" font-weight="700"><tspan x="-8.342" y="0">3</tspan></text>
    </g>
  </g>
</svg>
