<svg xmlns="http://www.w3.org/2000/svg" xmlns:xlink="http://www.w3.org/1999/xlink" width="192.864" height="192.864" viewBox="0 0 192.864 192.864">
  <defs>
    <filter id="Oval" x="0" y="0" width="192.864" height="192.864" filterUnits="userSpaceOnUse">
      <feOffset dy="2" input="SourceAlpha"/>
      <feGaussianBlur stdDeviation="15" result="blur"/>
      <feFlood flood-color="#e0e5f0"/>
      <feComposite operator="in" in2="blur"/>
      <feComposite in="SourceGraphic"/>
    </filter>
  </defs>
  <g id="Grupo_515" data-name="Grupo 515" transform="translate(-265.119 -1507.452)">
    <g id="Group_2" data-name="Group 2" transform="translate(310.119 1550.452)">
      <g transform="matrix(1, 0, 0, 1, -45, -43)" filter="url(#Oval)">
        <circle id="Oval-2" data-name="Oval" cx="51.432" cy="51.432" r="51.432" transform="translate(45 43)" fill="#fff"/>
      </g>
      <g id="Grupo_509" data-name="Grupo 509" transform="translate(-105 19.732)">
        <g id="innovation" transform="translate(132.45 3)">
          <path id="Trazado_408" data-name="Trazado 408" d="M119.523,31.636a17.648,17.648,0,0,0,.586-27.506.8.8,0,0,0-1.033,1.229,16.042,16.042,0,0,1-.533,25,4.345,4.345,0,0,0-1.717,3.461v1.638h-3.714V33.575a1.661,1.661,0,0,0-1.659-1.659h-.114V29.976h.97a2.576,2.576,0,1,0-2.576-2.576v.97h-1.941V27.4a2.576,2.576,0,1,0-2.576,2.576h.97v1.941h-.114a1.661,1.661,0,0,0-1.659,1.659v1.887H100.7V33.825a4.349,4.349,0,0,0-1.719-3.463,16.032,16.032,0,0,1,10.34-28.747,15.849,15.849,0,0,1,7.137,1.953.8.8,0,1,0,.771-1.408A17.628,17.628,0,0,0,91.118,17.452a17.469,17.469,0,0,0,1.831,8.034A17.8,17.8,0,0,0,98,31.634,2.755,2.755,0,0,1,99.1,33.825v1.766a2.575,2.575,0,0,0,0,4.894v7.4a3.375,3.375,0,0,0,3.371,3.371h.23A4.234,4.234,0,0,0,106.87,54.8h3.789a4.234,4.234,0,0,0,4.172-3.546h.23a3.375,3.375,0,0,0,3.371-3.371v-7.4a2.575,2.575,0,0,0,0-4.894V33.825a2.751,2.751,0,0,1,1.091-2.189ZM111.34,27.4a.97.97,0,1,1,.97.97h-.97Zm-6.122.97a.97.97,0,1,1,.97-.97v.97Zm2.576,1.605h1.941v1.941h-1.941Zm-1.773,3.6a.054.054,0,0,1,.054-.054h5.38a.054.054,0,0,1,.054.054v1.887h-5.487Zm10.806,8.98H105.853a.8.8,0,0,0,0,1.605h10.974V46.1H100.7V44.161h1.941a.8.8,0,1,0,0-1.605H100.7V40.614h16.126Zm-6.168,10.639H106.87a2.627,2.627,0,0,1-2.532-1.941h8.854a2.627,2.627,0,0,1-2.533,1.941Zm4.4-3.546H102.467a1.768,1.768,0,0,1-1.766-1.766v-.175h16.126v.175A1.768,1.768,0,0,1,115.061,49.648Zm2.569-10.639H99.9a.97.97,0,0,1,0-1.941H117.63a.97.97,0,0,1,0,1.941Z" transform="translate(-83.138 0)" fill="#5072c3"/>
          <path id="Trazado_409" data-name="Trazado 409" d="M21.719,158.187a.8.8,0,0,0-.8-.8H17.37a.8.8,0,0,0,0,1.605h3.546A.8.8,0,0,0,21.719,158.187Z" transform="translate(-16.567 -140.539)" fill="#5072c3"/>
          <path id="Trazado_410" data-name="Trazado 410" d="M51.112,256.889l-3.071,1.773a.8.8,0,1,0,.8,1.39l3.071-1.773a.8.8,0,0,0-.8-1.39Z" transform="translate(-44.313 -229.298)" fill="#5072c3"/>
          <path id="Trazado_411" data-name="Trazado 411" d="M424.939,258.662l-3.071-1.773a.8.8,0,0,0-.8,1.39l3.071,1.773a.8.8,0,0,0,.8-1.39Z" transform="translate(-377.414 -229.298)" fill="#5072c3"/>
          <path id="Trazado_412" data-name="Trazado 412" d="M451.647,157.384H448.1a.8.8,0,1,0,0,1.605h3.546a.8.8,0,0,0,0-1.605Z" transform="translate(-401.197 -140.539)" fill="#5072c3"/>
          <path id="Trazado_413" data-name="Trazado 413" d="M421.468,44.8a.8.8,0,0,0,.4-.108l3.071-1.773a.8.8,0,1,0-.8-1.39L421.065,43.3a.8.8,0,0,0,.4,1.5Z" transform="translate(-377.414 -36.985)" fill="#5072c3"/>
          <path id="Trazado_414" data-name="Trazado 414" d="M48.04,42.915l3.071,1.773a.8.8,0,0,0,.8-1.39l-3.071-1.773a.8.8,0,0,0-.8,1.39Z" transform="translate(-44.313 -36.984)" fill="#5072c3"/>
          <path id="Trazado_415" data-name="Trazado 415" d="M234.51,99.4a2.576,2.576,0,1,0,2.576,2.576A2.579,2.579,0,0,0,234.51,99.4Zm0,3.546a.97.97,0,1,1,.97-.97A.971.971,0,0,1,234.51,102.947Z" transform="translate(-208.883 -88.762)" fill="#5072c3"/>
          <path id="Trazado_416" data-name="Trazado 416" d="M182.642,39.812l-.026-.063.573-.956a1.687,1.687,0,0,0-.254-2.064L181.407,35.2a1.687,1.687,0,0,0-2.064-.254l-.956.573-.063-.026-.27-1.081a1.687,1.687,0,0,0-1.639-1.28h-2.162a1.687,1.687,0,0,0-1.639,1.28l-.27,1.081-.063.026-.956-.573a1.687,1.687,0,0,0-2.064.254l-1.529,1.529a1.687,1.687,0,0,0-.254,2.064l.573.956-.026.063-1.081.27a1.687,1.687,0,0,0-1.28,1.639v2.162a1.687,1.687,0,0,0,1.28,1.639l1.081.27.026.063-.573.956a1.687,1.687,0,0,0,.254,2.064l1.529,1.529a1.687,1.687,0,0,0,2.064.254l.956-.573.063.026.27,1.081a1.687,1.687,0,0,0,1.639,1.28h2.162a1.687,1.687,0,0,0,1.639-1.28l.27-1.081.063-.026.956.573a1.687,1.687,0,0,0,2.064-.254l1.529-1.529a1.687,1.687,0,0,0,.254-2.064l-.573-.956.026-.063,1.081-.27A1.687,1.687,0,0,0,185,43.883V41.721a1.687,1.687,0,0,0-1.28-1.639Zm.756,4.071a.084.084,0,0,1-.064.081l-1.49.372a.8.8,0,0,0-.564.517,6.288,6.288,0,0,1-.29.7.8.8,0,0,0,.033.765l.789,1.316a.084.084,0,0,1-.013.1l-1.529,1.529a.084.084,0,0,1-.1.013l-1.316-.789a.8.8,0,0,0-.765-.033,6.272,6.272,0,0,1-.7.29.8.8,0,0,0-.517.564L176.5,50.8a.084.084,0,0,1-.081.063h-2.162a.084.084,0,0,1-.081-.064l-.372-1.49a.8.8,0,0,0-.517-.564,6.289,6.289,0,0,1-.7-.29.8.8,0,0,0-.765.033l-1.316.789a.083.083,0,0,1-.1-.013l-1.529-1.529a.084.084,0,0,1-.013-.1l.789-1.316a.8.8,0,0,0,.033-.765,6.276,6.276,0,0,1-.29-.7.8.8,0,0,0-.564-.517l-1.489-.372a.084.084,0,0,1-.064-.081V41.721a.084.084,0,0,1,.064-.081l1.49-.372a.8.8,0,0,0,.564-.517,6.277,6.277,0,0,1,.29-.7.8.8,0,0,0-.033-.765l-.789-1.316a.084.084,0,0,1,.013-.1l1.529-1.529a.084.084,0,0,1,.1-.013l1.316.789a.8.8,0,0,0,.765.033,6.281,6.281,0,0,1,.7-.29.8.8,0,0,0,.517-.564l.372-1.49a.084.084,0,0,1,.081-.063h2.162a.084.084,0,0,1,.081.063l.372,1.49a.8.8,0,0,0,.517.564,6.293,6.293,0,0,1,.7.29.8.8,0,0,0,.765-.033l1.316-.789a.083.083,0,0,1,.1.013l1.529,1.529a.084.084,0,0,1,.013.1l-.789,1.316a.8.8,0,0,0-.033.765,6.291,6.291,0,0,1,.29.7.8.8,0,0,0,.564.517l1.49.372a.084.084,0,0,1,.064.081v2.162Z" transform="translate(-149.708 -29.588)" fill="#5072c3"/>
        </g>
        <g id="icon" transform="translate(151.138 12.964)">
          <path id="Fill_5_Copy" data-name="Fill 5 Copy" d="M.215,3.9a1.006,1.006,0,0,1,.2-1.435A88.454,88.454,0,0,1,9.9,0a1.039,1.039,0,0,1,1.053,1.024c0,2.816-2.636,5.107-5.876,5.107A6.158,6.158,0,0,1,.215,3.9Z" transform="translate(8.961 29.253)" fill="#00339f" opacity="0.1"/>
          <path id="Fill_1_Copy_2" data-name="Fill 1 Copy 2" d="M7.03,31.977c-.2-3.708-1.318-4.746-2.731-6.061C2.476,24.221.41,22.3.023,15.209a14.892,14.892,0,0,1,3.1-9.988A13.06,13.06,0,0,1,13.384,0,13.084,13.084,0,0,1,23.693,5.261a14.788,14.788,0,0,1,3.053,9.954c-.408,6.886-2.4,8.795-4.167,10.479a7.39,7.39,0,0,0-2.43,3.653A.849.849,0,0,1,19.033,30a1.116,1.116,0,0,1-.54-1.339S8.445,32.92,7.962,32.958A.966.966,0,0,1,7.03,31.977Z" transform="translate(0 -8.309)" fill="#00339f" opacity="0.1"/>
        </g>
      </g>
    </g>
    <g id="Grupo_510" data-name="Grupo 510" transform="translate(-126 -394.862)" opacity="0.996">
      <circle id="Elipse_71" data-name="Elipse 71" cx="23.5" cy="23.5" r="23.5" transform="translate(416 1938.862)" fill="#137ec9"/>
      <text id="_1" data-name="1" transform="translate(439 1972.862)" fill="#fff" font-size="30" font-family="Arial-BoldMT, Arial" font-weight="700"><tspan x="-8.342" y="0">1</tspan></text>
    </g>
  </g>
</svg>
