<svg xmlns="http://www.w3.org/2000/svg" width="59.438" height="59.438" viewBox="0 0 59.438 59.438">
  <g id="Grupo_523" data-name="Grupo 523" transform="translate(-10784.145 1431.285)">
    <g id="icon" transform="translate(10784.645 -1430.785)">
      <circle id="Oval_2" data-name="Oval 2" cx="29.219" cy="29.219" r="29.219" fill="none" stroke="#e5e9ff" stroke-miterlimit="10" stroke-width="1"/>
      <circle id="Oval_2_Copy_3" data-name="Oval 2 Copy 3" cx="22.328" cy="22.328" r="22.328" transform="translate(7.167 7.167)" fill="#e5e9ff" opacity="0.439"/>
    </g>
    <g id="smartphone-online-money" transform="translate(10796.932 -1418)">
      <path id="Trazado_457" data-name="Trazado 457" d="M40.195,35a5.195,5.195,0,1,0,5.195,5.195A5.195,5.195,0,0,0,40.195,35Zm0,9.523a4.329,4.329,0,1,1,4.329-4.329A4.329,4.329,0,0,1,40.195,44.523Z" transform="translate(-16.975 -18.715)" fill="blue"/>
      <path id="Trazado_458" data-name="Trazado 458" d="M23.22,14.986V3.3a1.3,1.3,0,0,0-1.3-1.3H11.532a1.3,1.3,0,0,0-1.3,1.3V8.541a2.178,2.178,0,0,0-1.3.818.26.26,0,0,0-.039.065L5.3,16.527a2.178,2.178,0,0,0-.229,1.13l.4,5.584c0,.022,0,.043.009.065l.848,3.8H5.472v.866H13.7v-.866h-.844l.355-1.065.8-.792a.476.476,0,0,0,.078-.113l.433-.866a.433.433,0,0,0,.048-.195V21.912h2.186a6.49,6.49,0,1,0,6.472-6.926ZM18.891,2.866a.411.411,0,0,1-.134.307.4.4,0,0,1-.3.126H15a.433.433,0,0,1-.433-.433ZM13.337,19.51a.419.419,0,0,0-.074.238v1.3a.433.433,0,0,0,.048.195l.385.775v1.957l-.355.714-.818.814a.458.458,0,0,0-.1.169l-.433,1.3a.513.513,0,0,0-.022.139H7.2a.708.708,0,0,0-.009-.1L6.333,23.15,5.939,17.6a1.322,1.322,0,0,1,.134-.68L9.649,9.848a1.316,1.316,0,0,1,.584-.407v7.233a1.293,1.293,0,0,1-.316.043h-.55v.866h.55a2.164,2.164,0,0,0,1.55-.653L14.8,13.96A.861.861,0,0,1,15.986,14l.113.113a.86.86,0,0,1,.108,1.091Zm.844,1.537-.052-.1V19.878l2.8-4.2a1.742,1.742,0,0,0-.216-2.186L16.6,13.38a1.736,1.736,0,0,0-2.376-.065L11.1,16.1V3.3a.433.433,0,0,1,.433-.433H13.7a1.3,1.3,0,0,0,1.3,1.3h3.463a1.3,1.3,0,0,0,1.3-1.3h2.164a.433.433,0,0,1,.433.433V15.051a6.493,6.493,0,0,0-5.606,6Zm9.038,6.06a5.627,5.627,0,1,1,5.627-5.627,5.627,5.627,0,0,1-5.627,5.627Z" fill="blue"/>
      <path id="Trazado_459" data-name="Trazado 459" d="M44.463,41.463H44.03V39.732h.433a.868.868,0,0,1,.866.866h.866a1.732,1.732,0,0,0-1.732-1.732H44.03V38h-.866v.866h-.433a1.732,1.732,0,1,0,0,3.463h.433V44.06h-.433a.868.868,0,0,1-.866-.866H41a1.732,1.732,0,0,0,1.732,1.732h.433v.866h.866v-.866h.433a1.732,1.732,0,0,0,0-3.463Zm-1.3,0h-.433a.866.866,0,0,1,0-1.732h.433Zm1.3,2.6H44.03V42.329h.433a.866.866,0,0,1,0,1.732Z" transform="translate(-20.378 -20.416)" fill="blue"/>
      <path id="Trazado_460" data-name="Trazado 460" d="M30.659,12.5l.307-.3-.615-.615-.242.247a3.018,3.018,0,1,0,.55.671Zm-2.6,3.718a2.164,2.164,0,1,1,1.433-3.775l-1.433,1.433L27.5,13.31l-.615.615.866.866a.439.439,0,0,0,.615,0l1.649-1.654a2.154,2.154,0,0,1-1.957,3.078Z" transform="translate(-11.335 -5.124)" fill="blue"/>
    </g>
  </g>
</svg>
