<svg xmlns="http://www.w3.org/2000/svg" width="59.438" height="59.438" viewBox="0 0 59.438 59.438">
  <g id="Grupo_519" data-name="Grupo 519" transform="translate(-10784.145 1721.285)">
    <g id="icon" transform="translate(10784.645 -1720.785)">
      <circle id="Oval_2" data-name="Oval 2" cx="29.219" cy="29.219" r="29.219" fill="none" stroke="#e5e9ff" stroke-miterlimit="10" stroke-width="1"/>
      <circle id="Oval_2_Copy_3" data-name="Oval 2 Copy 3" cx="22.328" cy="22.328" r="22.328" transform="translate(7.167 7.167)" fill="#e5e9ff" opacity="0.439"/>
    </g>
    <g id="summertime" transform="translate(10801.822 -1704.956)">
      <path id="Trazado_420" data-name="Trazado 420" d="M329.4,275.649a4.493,4.493,0,1,0,4.493-4.493A4.493,4.493,0,0,0,329.4,275.649Zm4.493-3.594a3.594,3.594,0,1,1-3.594,3.594A3.594,3.594,0,0,1,333.891,272.055Zm0,0" transform="translate(-313.945 -258.576)" fill="#0d36e1"/>
      <path id="Trazado_421" data-name="Trazado 421" d="M370.9,561.637h5.135v.9H370.9Zm0,0" transform="translate(-353.52 -535.578)" fill="#0d36e1"/>
      <path id="Trazado_422" data-name="Trazado 422" d="M329.4,522.9h8.985v.9H329.4Zm0,0" transform="translate(-313.945 -498.641)" fill="#0d36e1"/>
      <path id="Trazado_423" data-name="Trazado 423" d="M116.379,522.9h.9v.9h-.9Zm0,0" transform="translate(-110.81 -498.641)" fill="#0d36e1"/>
      <path id="Trazado_424" data-name="Trazado 424" d="M58.285,542.269h.9v.9h-.9Zm0,0" transform="translate(-55.411 -517.109)" fill="#0d36e1"/>
      <path id="Trazado_425" data-name="Trazado 425" d="M5.614,21.733a34.026,34.026,0,0,0,4.322-13.3l4.178,4.153a.449.449,0,0,0,.314.131.424.424,0,0,0,.073-.006.448.448,0,0,0,.329-.243A4.386,4.386,0,0,0,14.008,7.4l-.367-.368H16.8a.45.45,0,0,0,.426-.592,4.386,4.386,0,0,0-4.167-3h-.584L14.72,1.184A.449.449,0,0,0,14.6.465a4.387,4.387,0,0,0-5.072.823L9.1,1.716a4.394,4.394,0,0,0-.389.449,4.317,4.317,0,0,0-.386-.449L7.9,1.287A4.385,4.385,0,0,0,2.829.465a.449.449,0,0,0-.118.719L4.957,3.44h-.59a4.386,4.386,0,0,0-4.167,3,.449.449,0,0,0,.426.592H3.784L3.417,7.4a4.386,4.386,0,0,0-.823,5.069.449.449,0,0,0,.329.243A.426.426,0,0,0,3,12.719a.449.449,0,0,0,.317-.131L7.2,8.721a24.35,24.35,0,0,1-4.7,11.873A16.764,16.764,0,0,0,.672,20.22l-.281-.028-.09.894.262.026c.449.064.9.155,1.34.258-.09.113-.18.227-.273.338l.689.576A25.294,25.294,0,0,0,8.2,7.733l.517-.514L9.1,7.6A32.848,32.848,0,0,1,3.4,23.552l.736.515c.353-.5.69-1.027,1.017-1.561a15.935,15.935,0,0,1,5.436,4.259l.695-.569A16.781,16.781,0,0,0,8.3,23.363h18.83v-.9H6.973C6.533,22.2,6.078,21.958,5.614,21.733Zm8.65-10.264L9.518,6.75a3.465,3.465,0,0,1,3.43.858l.429.429A3.488,3.488,0,0,1,14.264,11.469Zm1.851-5.334H12.4A4.381,4.381,0,0,0,9.613,5.8a3.484,3.484,0,0,1,2.84-1.465h.606A3.488,3.488,0,0,1,16.115,6.136ZM9.736,2.352l.429-.429A3.491,3.491,0,0,1,13.6,1.034L10.936,3.713A4.382,4.382,0,0,0,8.815,5.378a3.4,3.4,0,0,1,.922-3.026ZM7.261,1.923l.429.429a3.41,3.41,0,0,1,.517.681,4.274,4.274,0,0,0-.343,1.493,4.382,4.382,0,0,0-1.37-.812L3.829,1.034a3.489,3.489,0,0,1,3.433.888ZM4.366,4.339h.607A3.485,3.485,0,0,1,7.816,5.8a4.383,4.383,0,0,0-2.781.333H1.313a3.489,3.489,0,0,1,3.055-1.8Zm-1.2,7.131a3.488,3.488,0,0,1,.888-3.432l.429-.429a3.434,3.434,0,0,1,2.436-1,3.553,3.553,0,0,1,1,.143Zm0,0" transform="translate(0 0)" fill="#0d36e1"/>
    </g>
  </g>
</svg>
