<svg xmlns="http://www.w3.org/2000/svg" width="59.438" height="59.438" viewBox="0 0 59.438 59.438">
  <g id="Grupo_520" data-name="Grupo 520" transform="translate(-10784.145 1651.285)">
    <g id="icon" transform="translate(10784.645 -1650.785)">
      <circle id="Oval_2" data-name="Oval 2" cx="29.219" cy="29.219" r="29.219" fill="none" stroke="#e5e9ff" stroke-miterlimit="10" stroke-width="1"/>
      <circle id="Oval_2_Copy_3" data-name="Oval 2 Copy 3" cx="22.328" cy="22.328" r="22.328" transform="translate(7.167 7.167)" fill="#e5e9ff" opacity="0.439"/>
    </g>
    <g id="business-and-finance" transform="translate(10804 -1634.778)">
      <path id="Trazado_426" data-name="Trazado 426" d="M264.952,49.47a2.345,2.345,0,1,0-2.345,2.345A2.348,2.348,0,0,0,264.952,49.47Zm-3.965,0a1.62,1.62,0,1,1,1.62,1.62A1.622,1.622,0,0,1,260.987,49.47Zm0,0" transform="translate(-247.676 -44.846)" fill="#0030ea"/>
      <path id="Trazado_427" data-name="Trazado 427" d="M200.269,55.643a.363.363,0,1,0,0-.725h-.953a.363.363,0,1,0,0,.725Zm0,0" transform="translate(-189.332 -52.262)" fill="#0030ea"/>
      <path id="Trazado_428" data-name="Trazado 428" d="M51.144,55.643h4.817a.363.363,0,0,0,0-.725H51.144a.363.363,0,1,0,0,.725Zm0,0" transform="translate(-48.326 -52.262)" fill="#0030ea"/>
      <path id="Trazado_429" data-name="Trazado 429" d="M51.144,122.049h1.242a.363.363,0,0,0,0-.725H51.144a.363.363,0,0,0,0,.725Zm0,0" transform="translate(-48.326 -115.457)" fill="#0030ea"/>
      <path id="Trazado_430" data-name="Trazado 430" d="M125.4,121.324a.363.363,0,0,0,0,.725h.785a.363.363,0,0,0,0-.725Zm0,0" transform="translate(-118.989 -115.457)" fill="#0030ea"/>
      <path id="Trazado_431" data-name="Trazado 431" d="M51.144,88.846h8.118a.363.363,0,0,0,0-.725H51.144a.363.363,0,0,0,0,.725Zm0,0" transform="translate(-48.326 -83.86)" fill="#0030ea"/>
      <path id="Trazado_432" data-name="Trazado 432" d="M52.094,175.665H64.289a1.313,1.313,0,0,0,0-2.626H52.094a1.313,1.313,0,1,0,0,2.626Zm0-1.9H64.289a.588.588,0,0,1,0,1.176H52.094a.588.588,0,1,1,0-1.176Zm0,0" transform="translate(-48.326 -164.671)" fill="#0030ea"/>
      <path id="Trazado_433" data-name="Trazado 433" d="M52.094,244.426H64.289a1.313,1.313,0,0,0,0-2.626H52.094a1.313,1.313,0,1,0,0,2.626Zm0-1.9H64.289a.588.588,0,0,1,0,1.176H52.094a.588.588,0,1,1,0-1.176Zm0,0" transform="translate(-48.326 -230.108)" fill="#0030ea"/>
      <path id="Trazado_434" data-name="Trazado 434" d="M52.094,313.188H64.289a1.313,1.313,0,0,0,0-2.626H52.094a1.313,1.313,0,1,0,0,2.626Zm0-1.9H64.289a.588.588,0,0,1,0,1.176H52.094a.588.588,0,1,1,0-1.176Zm0,0" transform="translate(-48.326 -295.544)" fill="#0030ea"/>
      <path id="Trazado_435" data-name="Trazado 435" d="M52.094,381.95h8.554a1.313,1.313,0,1,0,0-2.626H52.094a1.313,1.313,0,1,0,0,2.626Zm0-1.9h8.554a.588.588,0,0,1,0,1.176H52.094a.588.588,0,1,1,0-1.176Zm0,0" transform="translate(-48.326 -360.98)" fill="#0030ea"/>
      <path id="Trazado_436" data-name="Trazado 436" d="M23.625,19.378h-1.37v-1.21a.758.758,0,0,0-.453-.693l.531-2.435a2.314,2.314,0,0,0-2.6-2.785V1.2a1.206,1.206,0,0,0-1.2-1.2H1.2A1.206,1.206,0,0,0,0,1.2V5.093a.363.363,0,0,0,.725,0V1.2A.48.48,0,0,1,1.2.725H18.528a.48.48,0,0,1,.479.479V12.488a2.315,2.315,0,0,0-1.225,1.7.363.363,0,1,0,.716.113,1.592,1.592,0,1,1,3.127.588l-.551,2.525H19.066l-.338-1.551a.363.363,0,0,0-.708.155l.319,1.461a.758.758,0,0,0-.453.693v1.21h-1.37a1.136,1.136,0,0,0-1.135,1.135v.924a1.136,1.136,0,0,0,1.135,1.135h.019l.22.977a1.551,1.551,0,0,0,.2.479H1.2a.48.48,0,0,1-.479-.479V6.757a.363.363,0,0,0-.725,0v16.79a1.206,1.206,0,0,0,1.2,1.2l20.681,0a1.53,1.53,0,0,0,1.5-1.2l.22-.977h.019a1.136,1.136,0,0,0,1.135-1.135v-.924A1.136,1.136,0,0,0,23.625,19.378Zm-5.015-1.21a.032.032,0,0,1,.032-.032H21.5a.032.032,0,0,1,.032.032v1.21H18.61Zm4.069,5.22a.809.809,0,0,1-.793.634h-3.63a.809.809,0,0,1-.793-.634l-.184-.817h5.585Zm1.356-1.952a.41.41,0,0,1-.41.41h-7.11a.41.41,0,0,1-.41-.41v-.924a.41.41,0,0,1,.41-.41h7.11a.41.41,0,0,1,.41.41Zm0,0" fill="#0030ea"/>
    </g>
  </g>
</svg>
