<svg xmlns="http://www.w3.org/2000/svg" width="59.438" height="59.438" viewBox="0 0 59.438 59.438">
  <g id="Grupo_524" data-name="Grupo 524" transform="translate(-10784.145 1356.285)">
    <g id="icon" transform="translate(10784.645 -1355.785)">
      <circle id="Oval_2" data-name="Oval 2" cx="29.219" cy="29.219" r="29.219" fill="none" stroke="#e5e9ff" stroke-miterlimit="10" stroke-width="1"/>
      <circle id="Oval_2_Copy_3" data-name="Oval 2 Copy 3" cx="22.328" cy="22.328" r="22.328" transform="translate(7.167 7.167)" fill="#e5e9ff" opacity="0.439"/>
    </g>
    <g id="cashback" transform="translate(10803 -1339)">
      <path id="Trazado_454" data-name="Trazado 454" d="M22.993,303.442a2.079,2.079,0,0,0-2.138.1l-3.361,2.241a2.12,2.12,0,0,0-2.107-1.9H11.858l-.46-.345a5.332,5.332,0,0,0-5.942-.307l-.185.111v-.636A.706.706,0,0,0,4.564,302H.706a.706.706,0,0,0-.706.706v8.47a.706.706,0,0,0,.706.706H4.564a.706.706,0,0,0,.706-.706v-.235H16.388a3.513,3.513,0,0,0,2.009-.628l4.8-3.322a2.083,2.083,0,0,0-.2-3.548ZM3.859,310.47H1.412v-7.058H3.859Zm18.533-4.64-4.8,3.322a2.108,2.108,0,0,1-1.205.377H5.27v-4.541l.911-.547a3.92,3.92,0,0,1,4.369.225l.649.486a.706.706,0,0,0,.424.141h3.764a.706.706,0,1,1,0,1.412H10.211a.706.706,0,1,0,0,1.412h5.547a2.58,2.58,0,0,0,1.436-.435l4.444-2.962a.671.671,0,0,1,1.043.558A.671.671,0,0,1,22.392,305.83Z" transform="translate(0 -287.789)" fill="#000aff"/>
      <path id="Trazado_455" data-name="Trazado 455" d="M107.882,11.764a5.891,5.891,0,0,0,5.8-4.917,7.879,7.879,0,0,1,1.407,2.243h-.621a.706.706,0,0,0-.542,1.158l3.059,3.67a.706.706,0,0,0,1.084,0l3.059-3.67a.706.706,0,0,0-.542-1.158H119.56A12.05,12.05,0,0,0,107.882,0a5.882,5.882,0,0,0,0,11.764ZM112.766,2.6A10.638,10.638,0,0,1,118.3,9.935.706.706,0,0,0,119,10.5h.084l-1.552,1.862L115.977,10.5h.1a.706.706,0,0,0,.681-.892A9.276,9.276,0,0,0,113.681,4.9h0a5.849,5.849,0,0,0-.917-2.29l0,0Zm-4.884-1.189a4.47,4.47,0,1,1-4.47,4.47,4.475,4.475,0,0,1,4.47-4.47Z" transform="translate(-97.2 0)" fill="#000aff"/>
      <path id="Trazado_456" data-name="Trazado 456" d="M188.882,49.47a.471.471,0,1,1-.461.565.706.706,0,1,0-1.383.281,1.887,1.887,0,0,0,1.139,1.368v.138a.706.706,0,1,0,1.412,0v-.138a1.882,1.882,0,0,0-.706-3.627.471.471,0,1,1,.461-.565.706.706,0,1,0,1.383-.281,1.887,1.887,0,0,0-1.139-1.368v-.138a.706.706,0,0,0-1.412,0v.138a1.882,1.882,0,0,0,.706,3.627Z" transform="translate(-178.201 -42.882)" fill="#000aff"/>
    </g>
  </g>
</svg>
